<?xml version="1.0" encoding="utf-8"?>
<!-- Generator: Adobe Illustrator 23.0.6, SVG Export Plug-In . SVG Version: 6.00 Build 0)  -->
<svg version="1.1" id="Layer_1" xmlns="http://www.w3.org/2000/svg" xmlns:xlink="http://www.w3.org/1999/xlink" x="0px" y="0px"
	 viewBox="0 0 18 19" style="enable-background:new 0 0 18 19;" xml:space="preserve">
<style type="text/css">
	.st0{fill:#39434E;}
</style>
<g>
	<path class="st0" d="M9,9.1"/>
	<path class="st0" d="M9,9.1"/>
	<g>
		<rect x="1" y="2" class="st0" width="17" height="1"/>
		<rect y="9" class="st0" width="18" height="1"/>
		<rect y="16" class="st0" width="18" height="1"/>
		<path class="st0" d="M5,2.5C5,3.9,3.9,5,2.5,5C1.1,5,0,3.9,0,2.5C0,1.1,1.1,0,2.5,0C3.9,0,5,1.1,5,2.5z"/>
		<path class="st0" d="M16,9.5c0,1.4-1.1,2.5-2.5,2.5c-1.4,0-2.5-1.1-2.5-2.5C11,8.1,12.1,7,13.5,7C14.9,7,16,8.1,16,9.5z"/>
		<path class="st0" d="M9,16.5C9,17.9,7.9,19,6.5,19C5.1,19,4,17.9,4,16.5C4,15.1,5.1,14,6.5,14C7.9,14,9,15.1,9,16.5z"/>
	</g>
</g>
</svg>
