<?xml version="1.0" encoding="utf-8"?>
<!-- Generator: Adobe Illustrator 19.0.0, SVG Export Plug-In . SVG Version: 6.00 Build 0)  -->
<svg version="1.1" id="Layer_1" xmlns="http://www.w3.org/2000/svg" xmlns:xlink="http://www.w3.org/1999/xlink" x="0px" y="0px"
     viewBox="117.5 -79.6 1000 1000" style="enable-background:new 117.5 -79.6 1000 1000;" xml:space="preserve">
<style type="text/css">
    .st0{opacity:0.99;fill:#0A35EA;enable-background:new    ;}
    .st1{fill:#FFFFFF;}
</style>
<circle id="_x3C_bg_x3E_" class="st0" cx="617.5" cy="420.4" r="450" filter="url(#f1)"/>
<g id="chrono" filter="url(#f1)">
    <path class="st1" d="M624.1,792.1c-168.5-0.2-305.5-137.6-305.2-306.3c0.2-168.6,137.2-305.6,305.4-305.5
        C793.2,180.4,930.2,317.4,930,486C929.8,655.3,793,792.2,624.1,792.1z M624.2,733c136,0,246.6-110.5,246.8-246.6
        c0.2-136.3-110.2-246.8-246.7-247C488.7,239.3,378.1,350,378,485.8C377.9,621.9,488.5,733,624.2,733z"/>
    <path class="st1" d="M575.6,48.7c32.9,0,65.1,0,97.8,0c0,21.2,0,42.3,0,63.8c-6.1,0-12.3,0-19.1,0c0,17.7,0,34.9,0,52
        c-20,0-39.1,0-59,0c0-16.6,0-33.8,0-51.7c-6.9,0-13.1,0-19.7,0C575.6,91.2,575.6,70.1,575.6,48.7z"/>
    <path class="st1" d="M333.5,269.2c-1.6-1.4-20.2-19.4-28.6-27.6c23.6-23.4,46.7-46.2,69.4-68.7c8.5,8.5,17.6,17.7,27.3,27.5
        c-3.9,3.4-8.7,7.7-14.1,12.4c10.1,9.8,19.2,18.6,27.9,27c-14.7,13.8-28.8,27-43.6,40.9c-6.8-7.2-15.7-16.4-25-26.2
        C342.3,259.9,338.1,264.3,333.5,269.2z"/>
    <path class="st1" d="M624.6,276.1C508.9,276,414.8,370,414.7,485.8c-0.2,115.9,93.5,209.9,209.3,210.1
        c116,0.3,210.4-93.8,210.3-209.8C834.3,370.3,740.3,276.2,624.6,276.1z M624.3,678.9c-106.1,0-192.5-86.4-192.5-192.5
        s86.4-192.5,192.5-192.5s192.5,86.4,192.5,192.5C816.8,592.5,730.4,678.9,624.3,678.9z"/>
    <path class="st1" d="M806.9,486.4L806.9,486.4c0-26.8-5.8-52.2-16.1-75.2l-166.5,75.2H806.9z"/>
</g>
    <defs>
    <filter id="f1" x="0" y="0" width="110%" height="110%">
      <feOffset result="offOut" in="SourceAlpha" dx="5" dy="5" />
      <feGaussianBlur result="blurOut" in="offOut" stdDeviation="5" />
      <feBlend in="SourceGraphic" in2="blurOut" mode="normal" />
    </filter>
  </defs>
</svg>
