<?xml version="1.0" encoding="utf-8"?>
<!-- Generator: Adobe Illustrator 23.0.6, SVG Export Plug-In . SVG Version: 6.00 Build 0)  -->
<svg version="1.1" id="Layer_1" xmlns="http://www.w3.org/2000/svg" xmlns:xlink="http://www.w3.org/1999/xlink" x="0px" y="0px"
	 viewBox="0 0 1000 1000" style="enable-background:new 0 0 1000 1000;" xml:space="preserve">
<style type="text/css">
	.st0{opacity:0.99;fill:#062956;enable-background:new    ;}
	.st1{fill:#FFFFFF;}
</style>
<circle id="_x3C_bg_x3E_" class="st0" cx="500" cy="511.8" r="450"/>
<g>
	<path class="st1" d="M786.2,598.1H213.8c-2,0-3.8,1.8-3.8,3.8v103.8c0,2,1.8,3.8,3.8,3.8h20.1c2,0,3.8,1.8,3.8,3.8v19.8
		c0,2,1.8,3.8,3.8,3.8h516.9c2,0,3.8-1.8,3.8-3.8v-19.8c0-2,1.8-3.8,3.8-3.8h20.1c2,0,3.8-1.8,3.8-3.8V601.9
		C790,599.6,788.2,598.1,786.2,598.1z M272.8,677.4c0,5.1-4.3,9.4-9.4,9.4c-5.1,0-9.4-4.3-9.4-9.4v-50.1c0-5.1,4.3-9.4,9.4-9.4
		c5.1,0,9.4,4.3,9.4,9.4V677.4z M309.5,677.4c0,5.1-4.3,9.4-9.4,9.4c-5.1,0-9.4-4.3-9.4-9.4v-50.1c0-5.1,4.3-9.4,9.4-9.4
		c5.1,0,9.4,4.3,9.4,9.4V677.4z M346.1,677.4c0,5.1-4.3,9.4-9.4,9.4c-5.1,0-9.4-4.3-9.4-9.4v-50.1c0-5.1,4.3-9.4,9.4-9.4
		c5.1,0,9.4,4.3,9.4,9.4V677.4z M382.5,677.4c0,5.1-4.3,9.4-9.4,9.4s-9.4-4.3-9.4-9.4v-50.1c0-5.1,4.3-9.4,9.4-9.4s9.4,4.3,9.4,9.4
		V677.4z M669.2,662.2c-5.6,0-9.9-4.6-9.9-9.9c0-5.6,4.6-9.9,9.9-9.9c5.6,0,9.9,4.6,9.9,9.9C679.1,657.9,674.5,662.2,669.2,662.2z
		 M702.5,662.2c-5.6,0-9.9-4.6-9.9-9.9c0-5.6,4.6-9.9,9.9-9.9c5.6,0,9.9,4.6,9.9,9.9C712.4,657.9,708.1,662.2,702.5,662.2z
		 M736.1,662.2c-5.6,0-9.9-4.6-9.9-9.9c0-5.6,4.6-9.9,9.9-9.9c5.6,0,9.9,4.6,9.9,9.9C746,657.9,741.4,662.2,736.1,662.2z"/>
	<path class="st1" d="M786.2,442.4H213.8c-2,0-3.8,1.8-3.8,3.8V550c0,2,1.8,3.8,3.8,3.8h20.1c2,0,3.8,1.8,3.8,3.8v19.8
		c0,2,1.8,3.8,3.8,3.8h516.9c2,0,3.8-1.8,3.8-3.8v-19.8c0-2,1.8-3.8,3.8-3.8h20.1c2,0,3.8-1.8,3.8-3.8V446.2
		C790,444.2,788.2,442.4,786.2,442.4z M272.8,521.5c0,5.1-4.3,9.4-9.4,9.4c-5.1,0-9.4-4.3-9.4-9.4v-49.9c0-5.1,4.3-9.4,9.4-9.4
		c5.1,0,9.4,4.3,9.4,9.4V521.5z M309.5,521.5c0,5.1-4.3,9.4-9.4,9.4c-5.1,0-9.4-4.3-9.4-9.4v-49.9c0-5.1,4.3-9.4,9.4-9.4
		c5.1,0,9.4,4.3,9.4,9.4V521.5z M346.1,521.5c0,5.1-4.3,9.4-9.4,9.4c-5.1,0-9.4-4.3-9.4-9.4v-49.9c0-5.1,4.3-9.4,9.4-9.4
		c5.1,0,9.4,4.3,9.4,9.4V521.5z M382.5,521.5c0,5.1-4.3,9.4-9.4,9.4s-9.4-4.3-9.4-9.4v-49.9c0-5.1,4.3-9.4,9.4-9.4s9.4,4.3,9.4,9.4
		V521.5z M669.2,506.7c-5.6,0-9.9-4.6-9.9-9.9c0-5.6,4.6-9.9,9.9-9.9c5.6,0,9.9,4.6,9.9,9.9S674.5,506.7,669.2,506.7z M702.5,506.7
		c-5.6,0-9.9-4.6-9.9-9.9c0-5.6,4.6-9.9,9.9-9.9c5.6,0,9.9,4.6,9.9,9.9S708.1,506.7,702.5,506.7z M736.1,506.7
		c-5.6,0-9.9-4.6-9.9-9.9c0-5.6,4.6-9.9,9.9-9.9c5.6,0,9.9,4.6,9.9,9.9S741.4,506.7,736.1,506.7z"/>
	<path class="st1" d="M786.2,286.7H213.8c-2,0-3.8,1.8-3.8,3.8v103.8c0,2,1.8,3.8,3.8,3.8h20.1c2,0,3.8,1.8,3.8,3.8v19.8
		c0,2,1.8,3.8,3.8,3.8h516.9c2,0,3.8-1.8,3.8-3.8v-19.8c0-2,1.8-3.8,3.8-3.8h20.1c2,0,3.8-1.8,3.8-3.8V290.5
		C790,288.5,788.2,286.7,786.2,286.7z M272.8,366.1c0,5.1-4.3,9.4-9.4,9.4c-5.1,0-9.4-4.3-9.4-9.4V316c0-5.1,4.3-9.4,9.4-9.4
		c5.1,0,9.4,4.3,9.4,9.4V366.1z M309.5,366.1c0,5.1-4.3,9.4-9.4,9.4c-5.1,0-9.4-4.3-9.4-9.4V316c0-5.1,4.3-9.4,9.4-9.4
		c5.1,0,9.4,4.3,9.4,9.4V366.1z M346.1,366.1c0,5.1-4.3,9.4-9.4,9.4c-5.1,0-9.4-4.3-9.4-9.4V316c0-5.1,4.3-9.4,9.4-9.4
		c5.1,0,9.4,4.3,9.4,9.4V366.1z M382.5,366.1c0,5.1-4.3,9.4-9.4,9.4s-9.4-4.3-9.4-9.4V316c0-5.1,4.3-9.4,9.4-9.4s9.4,4.3,9.4,9.4
		V366.1z M669.2,350.8c-5.6,0-9.9-4.6-9.9-9.9c0-5.6,4.6-9.9,9.9-9.9c5.6,0,9.9,4.6,9.9,9.9C679.1,346.5,674.5,350.8,669.2,350.8z
		 M702.5,350.8c-5.6,0-9.9-4.6-9.9-9.9c0-5.6,4.6-9.9,9.9-9.9c5.6,0,9.9,4.6,9.9,9.9C712.4,346.5,708.1,350.8,702.5,350.8z
		 M736.1,350.8c-5.6,0-9.9-4.6-9.9-9.9c0-5.6,4.6-9.9,9.9-9.9c5.6,0,9.9,4.6,9.9,9.9C746,346.5,741.4,350.8,736.1,350.8z"/>
</g>
</svg>
