<?xml version="1.0" encoding="utf-8"?>
<!-- Generator: Adobe Illustrator 19.0.0, SVG Export Plug-In . SVG Version: 6.00 Build 0)  -->
<svg version="1.1" id="Layer_1" xmlns="http://www.w3.org/2000/svg" xmlns:xlink="http://www.w3.org/1999/xlink" x="0px" y="0px"
     viewBox="202 -80.1 1000 1000" style="enable-background:new 202 -80.1 1000 1000;" xml:space="preserve">
<style type="text/css">
    .st0{opacity:0.99;fill:rgb(6, 41, 86);enable-background:new    ;}
    .st1{fill:#FFFFFF;}
</style>
<circle id="_x3C_bg_x3E_" class="st0" cx="702" cy="419.9" r="450"/>
<path class="st1" d="M708.6,791.6C540.1,791.4,403.1,654,403.4,485.3c0.2-168.6,137.2-305.6,305.4-305.5
    c168.9,0.1,305.9,137.1,305.7,305.7C1014.3,654.8,877.5,791.7,708.6,791.6z M708.7,732.5c136,0,246.6-110.5,246.8-246.6
    c0.2-136.3-110.2-246.8-246.7-247c-135.6-0.1-246.2,110.6-246.3,246.4C462.4,621.4,573,732.5,708.7,732.5z"/>
<path class="st1" d="M660.1,48.2c32.9,0,65.1,0,97.8,0c0,21.2,0,42.3,0,63.8c-6.1,0-12.3,0-19.1,0c0,17.7,0,34.9,0,52
    c-20,0-39.1,0-59,0c0-16.6,0-33.8,0-51.7c-6.9,0-13.1,0-19.7,0C660.1,90.7,660.1,69.6,660.1,48.2z"/>
<path class="st1" d="M418,268.7c-1.6-1.4-20.2-19.4-28.6-27.6c23.6-23.4,46.7-46.2,69.4-68.7c8.5,8.5,17.6,17.7,27.3,27.5
    c-3.9,3.4-8.7,7.7-14.1,12.4c10.1,9.8,19.2,18.6,27.9,27c-14.7,13.8-28.8,27-43.6,40.9c-6.8-7.2-15.7-16.4-25-26.2
    C426.8,259.4,422.6,263.8,418,268.7z"/>
<path class="st1" d="M709.1,275.6c-115.7-0.1-209.8,93.9-209.9,209.7c-0.2,115.9,93.5,209.9,209.3,210.1
    c116,0.3,210.4-93.8,210.3-209.8C918.8,369.8,824.8,275.7,709.1,275.6z M708.8,678.4c-106.1,0-192.5-86.4-192.5-192.5
    s86.4-192.5,192.5-192.5s192.5,86.4,192.5,192.5S814.9,678.4,708.8,678.4z"/>
<g>
    
        <rect x="610.5" y="462.3" transform="matrix(0.7071 0.7071 -0.7071 0.7071 540.6892 -363.3938)" class="st1" width="197" height="17.3"/>
    
        <rect x="610.5" y="462.3" transform="matrix(-0.7071 0.7071 -0.7071 -0.7071 1543.3662 302.6622)" class="st1" width="197" height="17.3"/>
</g>
</svg>
