<?xml version="1.0" encoding="utf-8"?>
<!-- Generator: Adobe Illustrator 23.0.6, SVG Export Plug-In . SVG Version: 6.00 Build 0)  -->
<svg version="1.1" id="Layer_1" xmlns="http://www.w3.org/2000/svg" xmlns:xlink="http://www.w3.org/1999/xlink" x="0px" y="0px"
	 viewBox="0 0 1000 1000" style="enable-background:new 0 0 1000 1000;" xml:space="preserve">
<style type="text/css">
	.st0{opacity:0.99;fill:#062956;enable-background:new    ;}
	.st1{fill:#FFFFFF;}
</style>
<circle id="_x3C_bg_x3E_" class="st0" cx="500" cy="511.8" r="450"/>
<g>
	<path class="st1" d="M509.2,502.6h128.3c-0.7-47.9-7.3-93.7-18.9-134.2c-33.9,8.6-70.9,13.9-109.3,15.5V502.6z"/>
	<path class="st1" d="M437,234.4c5.8-4.9,11.7-9.1,17.7-12.6c-71.2,11-133.9,47.7-178.5,100.2c1.3,0.7,2.7,1.4,4,2
		c25.3,12.7,54.6,22.7,86.5,29.7c6-19.2,13.1-37.2,21.4-53.6C402,272.1,418.5,250,437,234.4z"/>
	<path class="st1" d="M545.4,221.8c6,3.5,11.9,7.7,17.7,12.6c18.4,15.6,34.9,37.7,48.9,65.8c7.1,14.2,13.4,29.5,18.8,45.8
		c20.2-6,39.1-13.3,56.2-21.9c9.3-4.6,17.8-9.5,25.6-14.6C668.9,263.7,610.7,232,545.4,221.8z"/>
	<path class="st1" d="M437,789.3c-18.4-15.6-34.9-37.7-48.9-65.8c-5.2-10.4-9.9-21.3-14.2-32.8c-28.3,6.9-54.3,16.2-77.2,27.6
		c-1.2,0.6-2.3,1.2-3.5,1.8c42.9,42.7,99,72.1,161.5,81.8C448.7,798.4,442.7,794.2,437,789.3z"/>
	<path class="st1" d="M509.2,657.9c36.6,0.5,72,4.4,105.1,11.2c14.3-43.8,22.3-94.6,23.2-148.1H509.2V657.9z"/>
	<path class="st1" d="M490.8,384.4c-2.4,0-4.8,0-7.2,0c-36,0-71.1-3.2-104-9.3c-10.5,38.8-16.4,82.2-17.1,127.5h128.3V384.4z"/>
	<path class="st1" d="M626.2,690.6c-4.3,11.5-9,22.5-14.2,32.8c-14,28.1-30.5,50.2-48.9,65.8c-5.8,4.9-11.7,9.1-17.7,12.6
		c62.6-9.7,118.6-39.2,161.5-81.8c-1.1-0.6-2.3-1.2-3.5-1.8C680.6,706.8,654.5,697.5,626.2,690.6z"/>
	<path class="st1" d="M613.1,350.8c-5.1-15.1-11-29.3-17.5-42.4c-23.8-47.6-54.2-75.7-86.3-80.2v137.3
		C545.8,363.9,580.9,358.9,613.1,350.8z"/>
	<path class="st1" d="M490.8,366V228.2c-32.2,4.5-62.5,32.6-86.3,80.2c-7.5,15-14.1,31.5-19.7,49c31.2,5.7,64.5,8.6,98.8,8.6
		C486,366.1,488.4,366.1,490.8,366z"/>
	<path class="st1" d="M490.8,521H362.5c0.8,53.5,8.9,104.3,23.2,148.1c33-6.8,68.5-10.7,105.1-11.2L490.8,521L490.8,521z"/>
	<path class="st1" d="M391.9,686.6c3.8,10,8,19.6,12.6,28.6c23.8,47.6,54.2,75.7,86.3,80.2V676.3C456.4,676.8,423,680.4,391.9,686.6
		z"/>
	<path class="st1" d="M361.5,371.5c-33-7.4-63.3-17.8-89.6-31c-2.5-1.3-5-2.5-7.4-3.8c-34.7,46.6-55.9,103.8-57.8,165.9h137.5
		C344.8,456.2,350.8,411.6,361.5,371.5z"/>
	<path class="st1" d="M509.2,795.5c32.2-4.5,62.5-32.6,86.3-80.2c4.5-9,8.7-18.6,12.6-28.6c-31.1-6.3-64.5-9.8-98.9-10.3V795.5
		L509.2,795.5z"/>
	<path class="st1" d="M632.3,673.2c29,7.2,55.8,16.8,79.3,28.6c2.9,1.4,5.6,2.9,8.3,4.3c43.8-49.6,71.2-114.2,73.3-185.1H655.8
		C655,575.7,646.9,628,632.3,673.2z"/>
	<path class="st1" d="M636.3,363.5c12.1,42.1,18.9,89.6,19.6,139.1h137.4c-2.1-68.2-27.5-130.6-68.4-179.4
		c-9,6.1-18.9,11.9-29.7,17.3C677.2,349.5,657.4,357.2,636.3,363.5z"/>
	<path class="st1" d="M367.7,673.2C353.1,628,345,575.7,344.2,521H206.7c2.2,70.9,29.5,135.5,73.3,185.1c2.7-1.5,5.5-2.9,8.3-4.3
		C312,690,338.7,680.4,367.7,673.2z"/>
</g>
</svg>
