<?xml version="1.0" encoding="utf-8"?>
<!-- Generator: Adobe Illustrator 19.0.0, SVG Export Plug-In . SVG Version: 6.00 Build 0)  -->
<svg version="1.1" id="Layer_1" xmlns="http://www.w3.org/2000/svg" xmlns:xlink="http://www.w3.org/1999/xlink" x="0px" y="0px"
     viewBox="202 -80.1 1000 1000" style="enable-background:new 202 -80.1 1000 1000;" xml:space="preserve">
<style type="text/css">
    .st0{opacity:0.99;fill:rgb(6, 41, 86);enable-background:new    ;}
    .st1{fill:#FFFFFF;}
</style>
<circle id="_x3C_bg_x3E_" class="st0" cx="702" cy="419.9" r="450"/>
<g>
    <path class="st1" d="M583.7,311.7c0-66,53.1-119.1,118.6-119.1s118.5,53.8,118.5,119.1v46.4H883v-46.4
        c0-100.2-81.2-182.1-180.8-182.1s-180.8,81.9-180.8,182.1v46.4h62.3V311.7z"/>
    <path class="st1" d="M903.8,358.2h-20.7v1.2h-62.3v-1.2H583.7v1.2h-62.3v-1.2h-20.7c-1.8,0-3.1,1.2-3.1,3.1v318.3
        c0,17.1,13.5,30.6,29.9,30.6h348.8c16.5,0,29.9-13.5,29.9-29.9V361.3C906.9,359.4,905.6,358.2,903.8,358.2z M683.9,604.4l-95.9-91
        l40.9-38.5l55,52l110.5-104.4l40.9,38.5L683.9,604.4z"/>
    <rect x="671.1" y="358.2" class="st1" width="62.3" height="1.2"/>
    <rect x="671.1" y="358.2" class="st1" width="62.3" height="1.2"/>
</g>
</svg>
