<svg width="49" height="42" viewBox="0 0 49 42" fill="none" xmlns="http://www.w3.org/2000/svg">
<path d="M46.4811 18.3107C46.4289 18.1889 46.3593 18.0671 46.307 17.9452C46.1852 17.7015 46.0634 17.4753 45.9241 17.249C45.663 16.779 45.3671 16.3439 45.0712 15.9088C45.0016 15.8043 44.9146 15.6999 44.845 15.5955C44.4446 15.0733 44.0269 14.5511 43.5569 14.0812C43.2784 13.8027 42.9999 13.5242 42.704 13.2457C42.4081 12.9846 42.1123 12.7235 41.799 12.4798C41.5901 12.3232 41.3812 12.1491 41.1549 12.0099C41.0505 11.9402 40.9461 11.8532 40.8242 11.7836C40.4935 11.5573 40.1628 11.3485 39.8147 11.157C39.5884 11.0177 39.3447 10.8959 39.1185 10.7741C38.7703 10.6 38.4048 10.4259 38.0219 10.2693C36.0376 9.43382 33.8619 8.96387 31.5818 8.96387C31.5644 8.96387 31.547 8.96387 31.5296 8.96387C25.7509 8.96387 20.651 11.9577 17.7094 16.4831C17.4135 16.9531 17.1176 17.4405 16.8739 17.9278C15.934 19.7728 15.3248 21.8093 15.1159 23.9676C15.0637 24.455 15.0463 24.9597 15.0463 25.4645C15.0463 26.3174 15.1159 27.1529 15.2378 27.9883C15.3074 28.4061 15.377 28.8064 15.4641 29.2067C15.5511 29.6071 15.6555 30.0074 15.7774 30.3903C15.8122 30.5122 15.8644 30.6514 15.8992 30.7733C15.9862 31.0343 16.0733 31.278 16.1777 31.5391C16.4214 32.1657 16.6999 32.7749 17.0306 33.3493C17.1524 33.5756 17.2917 33.8193 17.4309 34.0455C17.5005 34.1674 17.5702 34.2718 17.6398 34.3762C17.779 34.6025 17.9357 34.8114 18.0923 35.0377C18.162 35.1421 18.249 35.2465 18.3186 35.351C18.7189 35.8731 19.1367 36.3953 19.6066 36.8653C20.1462 37.4397 20.738 37.9792 21.3646 38.4666C21.6779 38.7103 21.9912 38.954 22.3219 39.1628C22.5482 39.3195 22.7571 39.4587 23.0008 39.598C23.227 39.7372 23.4533 39.8765 23.697 39.9983C24.0451 40.1898 24.4106 40.3638 24.7761 40.5379C26.8474 41.4778 29.1624 42 31.5818 42C33.8619 42 36.0376 41.53 38.0219 40.6945C38.196 40.6249 38.3874 40.5379 38.5615 40.4508C38.8748 40.3116 39.1707 40.155 39.4666 39.9983C39.658 39.8939 39.8495 39.7894 40.0236 39.6676C40.3021 39.5109 40.5631 39.3369 40.8242 39.1628C41.1549 38.9366 41.4682 38.7103 41.7815 38.4666C42.0948 38.2229 42.3907 37.9618 42.6866 37.7007C42.9825 37.4397 43.261 37.1612 43.5395 36.8653C43.9921 36.3953 44.4272 35.8731 44.8275 35.351C44.9146 35.2465 44.9842 35.1421 45.0538 35.0377C45.3323 34.6373 45.5934 34.237 45.8371 33.8193C45.8893 33.7322 45.9415 33.6452 45.9763 33.5582C46.0808 33.3667 46.1852 33.1753 46.2896 32.9838C46.3418 32.8619 46.4115 32.7401 46.4637 32.6183C47.508 30.4425 48.0998 28.0232 48.0998 25.4471C48.1172 22.9059 47.5254 20.4865 46.4811 18.3107ZM36.8731 29.8682C36.8383 29.99 36.7861 30.0944 36.7339 30.1989C36.6469 30.3729 36.5598 30.5296 36.4554 30.6862C36.4206 30.7384 36.3858 30.7907 36.351 30.8429C36.2813 30.9473 36.1943 31.0343 36.1073 31.1388C35.9854 31.278 35.8462 31.4173 35.7069 31.5565C35.6547 31.5913 35.6025 31.6435 35.5503 31.6784C35.4459 31.7654 35.3414 31.835 35.237 31.922C35.1326 31.9917 35.0107 32.0787 34.8889 32.1483C34.6104 32.305 34.3319 32.4442 34.0186 32.566C33.7053 32.6879 33.3746 32.7923 33.0265 32.8619C32.9916 32.8619 32.9742 32.8794 32.9568 32.8794C32.9394 32.8968 32.9046 32.8968 32.8872 32.9142C32.8176 32.949 32.7828 33.0012 32.7828 33.036V34.1326C32.7828 34.8114 32.1736 35.351 31.4251 35.351H31.3903C30.6419 35.351 30.0327 34.8114 30.0327 34.1326V33.1927C30.0327 33.1753 30.0327 33.1753 30.0327 33.1578C30.0153 33.123 29.9979 33.0882 29.963 33.0708C29.9108 33.036 29.8412 33.0012 29.7542 33.0012C29.6149 32.9838 29.4931 32.9838 29.3538 32.9664C29.0928 32.9316 28.8317 32.8968 28.588 32.8445C27.9614 32.7227 27.3522 32.5486 26.8474 32.3224C26.7256 32.2702 26.6211 32.2005 26.5167 32.1309C26.4819 32.1135 26.4471 32.0787 26.4297 32.0439C26.3427 31.9568 26.273 31.8524 26.2034 31.748C26.186 31.7132 26.1686 31.6784 26.1512 31.6435C26.1338 31.6087 26.1164 31.5739 26.1164 31.5391C26.0816 31.4347 26.0642 31.3302 26.0642 31.2084C26.0642 31.1736 26.0642 31.1388 26.0642 31.104C26.0642 31.0692 26.0816 31.0343 26.0816 30.9995C26.099 30.9299 26.1164 30.8603 26.1512 30.7907L26.2382 30.5992C26.2556 30.547 26.2904 30.4948 26.3252 30.4425C26.3252 30.4251 26.3427 30.4251 26.3427 30.4077C26.3775 30.3555 26.4123 30.3207 26.4471 30.2685C26.4819 30.2337 26.5341 30.1815 26.5689 30.1467C26.5863 30.1292 26.5863 30.1292 26.6037 30.1118C26.656 30.077 26.6908 30.0422 26.743 30.0074C26.7952 29.9726 26.8474 29.9552 26.8996 29.9204C26.917 29.9204 26.9344 29.903 26.9344 29.903C26.9867 29.8856 27.0389 29.8682 27.0911 29.8508C27.1433 29.8333 27.2129 29.8159 27.2652 29.8159C27.2826 29.8159 27.3 29.8159 27.3174 29.8159C27.3696 29.8159 27.4218 29.7985 27.4914 29.7985C27.4914 29.7985 27.4914 29.7985 27.5088 29.7985C27.5262 29.7985 27.5611 29.7985 27.5785 29.7985C27.5959 29.7985 27.6133 29.7985 27.6481 29.7985C27.6655 29.7985 27.7003 29.7985 27.7177 29.8159C27.7351 29.8159 27.7525 29.8159 27.7873 29.8159C27.8221 29.8159 27.8395 29.8333 27.8744 29.8333C27.8918 29.8333 27.9092 29.8333 27.9266 29.8508C27.9614 29.8682 27.9962 29.8682 28.0484 29.8856H28.0658C28.7098 30.1467 29.7194 30.4425 30.9726 30.4425C31.8429 30.4425 32.5913 30.2337 33.0613 29.8682C33.1309 29.8159 33.2005 29.7637 33.2527 29.7115C33.392 29.5723 33.4964 29.4156 33.5834 29.259C33.6705 29.1023 33.7053 28.9108 33.7053 28.7194C33.7053 28.702 33.7053 28.6846 33.7053 28.6672C33.7053 28.6324 33.7053 28.5801 33.6879 28.5453C33.6879 28.4757 33.6705 28.4235 33.6531 28.3539C33.6357 28.319 33.6357 28.2668 33.6183 28.232C33.6008 28.1798 33.5834 28.145 33.566 28.0928C33.5486 28.0754 33.5486 28.0406 33.5312 28.0232C33.4964 27.9709 33.479 27.9361 33.4442 27.8839C33.4094 27.8317 33.3746 27.7969 33.3224 27.7447C33.2875 27.6924 33.2353 27.6576 33.1831 27.6054C33.1309 27.5532 33.0787 27.5184 33.0091 27.4662C32.9394 27.414 32.8698 27.3617 32.8002 27.3269C32.6957 27.2573 32.5739 27.1877 32.4347 27.1006C32.3824 27.0832 32.3476 27.0484 32.2954 27.031C32.191 26.9788 32.0865 26.9266 31.9821 26.8744C31.9299 26.857 31.8603 26.8222 31.8081 26.8048C31.6862 26.7525 31.5644 26.7003 31.4251 26.6481C31.3555 26.6307 31.2859 26.5959 31.2163 26.5785C31.1466 26.5611 31.077 26.5263 30.99 26.5089C30.4504 26.3348 29.9282 26.1433 29.4235 25.9345C29.1276 25.8126 28.8317 25.6734 28.5532 25.5167C28.4139 25.4471 28.2921 25.3775 28.1703 25.2905C28.0484 25.2208 27.9266 25.1338 27.8047 25.0468C27.6829 24.9597 27.5785 24.8727 27.474 24.7857C27.3696 24.6987 27.2652 24.5942 27.1781 24.5072C27.0737 24.4028 26.9867 24.3157 26.8996 24.2113C26.8126 24.1069 26.743 24.0024 26.6734 23.8806C26.4819 23.5847 26.3427 23.2714 26.2556 22.9059C26.186 22.6448 26.1686 22.3663 26.1686 22.0704C26.1686 20.1035 27.6481 18.5544 30.0327 18.0149C30.0501 18.0149 30.0675 17.9974 30.0849 17.9974C30.1371 17.98 30.1719 17.9626 30.2067 17.9278C30.2241 17.9278 30.2241 17.9104 30.2415 17.893C30.2589 17.8756 30.2764 17.8582 30.2764 17.8408V17.8234V16.8313C30.2764 16.7094 30.2938 16.5876 30.346 16.4657C30.3808 16.3961 30.4156 16.3091 30.4504 16.2395C30.6593 15.8739 31.077 15.6303 31.5644 15.6129C31.5992 15.6129 31.6166 15.6129 31.6514 15.6129C32.1736 15.6129 32.6087 15.8739 32.835 16.2569C32.8698 16.3265 32.9046 16.3961 32.9394 16.4831C32.9742 16.605 33.0091 16.7268 33.0091 16.8487V17.7015C33.0091 17.7364 33.0265 17.7712 33.0613 17.7886C33.1135 17.8408 33.2005 17.8756 33.2875 17.893C33.6879 17.9278 34.0708 17.9974 34.4363 18.0671C34.8018 18.1541 35.15 18.2411 35.4807 18.363C35.6547 18.4326 35.8114 18.5196 35.9506 18.6415C36.0202 18.6937 36.0725 18.7633 36.1247 18.8329C36.1421 18.8677 36.1769 18.9025 36.1943 18.9374C36.2117 18.9722 36.2291 19.007 36.2465 19.0592C36.3161 19.1984 36.3335 19.3551 36.3335 19.5117C36.3335 19.6684 36.2987 19.8076 36.2291 19.9643L36.1421 20.1384C36.1247 20.1906 36.0899 20.2428 36.0551 20.295C36.0551 20.3124 36.0376 20.3124 36.0376 20.3298C36.0028 20.382 35.968 20.4168 35.9332 20.4691C35.8984 20.5039 35.8636 20.5387 35.8114 20.5735C35.794 20.5735 35.794 20.5909 35.7766 20.5909C35.7243 20.6257 35.6895 20.6605 35.6373 20.6779H35.6199C35.5677 20.6953 35.5329 20.7301 35.4807 20.7476C35.4633 20.7476 35.4633 20.765 35.4459 20.765C35.3936 20.7824 35.3414 20.7998 35.2892 20.8172H35.2718C35.2196 20.8346 35.1674 20.8346 35.1151 20.852C35.0977 20.852 35.0803 20.852 35.0803 20.852C35.0281 20.852 34.9585 20.8694 34.9063 20.8694C34.8889 20.8694 34.8541 20.8694 34.8367 20.8694C34.8192 20.8694 34.8018 20.8694 34.7844 20.8694C34.767 20.8694 34.7322 20.8694 34.7148 20.852C34.6974 20.852 34.68 20.852 34.6626 20.852C34.6278 20.852 34.6104 20.8346 34.5756 20.8346C34.5582 20.8346 34.5408 20.8346 34.5233 20.8172C34.4885 20.7998 34.4363 20.7998 34.4015 20.7824C33.6531 20.5039 32.8176 20.382 31.9473 20.382C31.8081 20.382 31.6688 20.382 31.5296 20.3994C30.1023 20.5213 29.5801 21.2175 29.5801 21.8267C29.5801 21.8615 29.5801 21.8963 29.5801 21.9137C29.6149 22.3489 29.876 22.697 30.52 23.0625C30.5897 23.0973 30.6767 23.1495 30.7463 23.1844C30.8681 23.254 31.0074 23.3062 31.1466 23.3758C31.2859 23.4454 31.4599 23.5151 31.634 23.5673C31.7558 23.6195 31.8777 23.6543 31.9995 23.7065C32.191 23.7762 32.3998 23.8458 32.6087 23.9328C32.748 23.985 32.8872 24.0372 33.0265 24.0895C33.1657 24.1417 33.3049 24.1939 33.4442 24.2461C33.5138 24.2809 33.5834 24.2983 33.6531 24.3331C33.8619 24.4202 34.0708 24.5072 34.2623 24.6116C34.3319 24.6464 34.4015 24.6812 34.4537 24.7161C34.593 24.7857 34.7148 24.8553 34.8367 24.9249C34.9063 24.9597 34.9585 24.9946 35.0281 25.0294C35.15 25.099 35.2718 25.186 35.3936 25.273C36.438 26.0215 37.169 27.0658 37.169 28.5975C37.082 29.0327 37.0124 29.4678 36.8731 29.8682Z" fill="#848484"/>
<path d="M15.9515 15.352C17.048 13.6636 18.3708 12.2016 19.8851 10.9832C19.0497 11.018 18.1794 11.0354 17.2917 11.0354C9.82463 11.0354 3.47154 9.9214 1.15657 8.35489C0.773648 8.0764 0.23407 8.35489 0.23407 8.82484V13.0544C0.23407 15.0735 6.65679 16.7445 14.9941 17.0055C14.9941 16.9881 15.0115 16.9881 15.0115 16.9707C15.29 16.4312 15.6207 15.8742 15.9515 15.352Z" fill="#848484"/>
<path d="M13.0447 23.7937C13.1491 22.5405 13.3928 21.3047 13.7583 20.1211C7.89258 19.8252 3.12341 18.833 1.19137 17.5276C0.791043 17.2665 0.251465 17.545 0.251465 18.015V22.2446C0.251465 24.0896 5.66465 25.6561 12.9925 26.1086C12.9925 25.8998 12.9751 25.6909 12.9751 25.482C12.9577 24.9251 12.9925 24.3681 13.0447 23.7937Z" fill="#848484"/>
<path d="M14.2456 32.3051C14.1412 32.0266 14.0368 31.7307 13.9323 31.4522C13.8801 31.313 13.8279 31.1563 13.7931 31.0171C13.6538 30.5819 13.532 30.1294 13.4276 29.6768C13.3928 29.5376 13.3754 29.4158 13.3405 29.2765C7.64886 28.9632 3.05375 27.9885 1.15652 26.7005C0.756192 26.4394 0.216614 26.7179 0.216614 27.1878V31.4174C0.216614 33.4887 6.97004 35.1945 15.6033 35.3859C15.6033 35.2989 15.6207 35.2119 15.6381 35.1248C15.4814 34.8638 15.3422 34.6201 15.1855 34.359C14.8548 33.6976 14.5241 33.0013 14.2456 32.3051Z" fill="#848484"/>
<path d="M17.3091 7.97183C26.7394 7.97183 34.3841 6.18727 34.3841 3.98591C34.3841 1.78456 26.7394 0 17.3091 0C7.87882 0 0.23407 1.78456 0.23407 3.98591C0.23407 6.18727 7.87882 7.97183 17.3091 7.97183Z" fill="#848484"/>
</svg>
