<svg width="42" height="42" viewBox="0 0 42 42" fill="none" xmlns="http://www.w3.org/2000/svg">
<path d="M21 0C9.41379 0 0 9.41379 0 21C0 32.5862 9.41379 42 21 42C32.5862 42 42 32.5862 42 21C42 9.41379 32.5862 0 21 0ZM21 37.1483C12.0931 37.1483 4.85172 29.9069 4.85172 21C4.85172 12.0931 12.0931 4.85172 21 4.85172C29.9069 4.85172 37.1483 12.0931 37.1483 21C37.1483 29.9069 29.9069 37.1483 21 37.1483Z" fill="#848484"/>
<path d="M19.769 18.9722C19.4069 19.8412 19.1172 20.6377 18.8276 21.5067C17.9586 24.1136 17.0897 26.7205 16.2931 29.3274C15.8586 30.8481 16.5103 31.8619 17.8138 32.0791C18.3207 32.1515 18.8276 32.1515 19.3345 32.0067C22.3034 31.355 23.6069 28.9653 24.9103 26.6481C24.6207 26.8653 24.4034 27.155 24.1138 27.3722C23.3897 28.1688 22.5207 28.8205 21.5069 29.1826C21.3621 29.255 21.0724 29.1826 20.9276 29.1102C20.8552 29.0377 20.9276 28.7481 20.9276 28.6033C21 28.386 21.0724 28.1688 21.2172 27.9515C22.3759 25.1998 23.5345 22.3757 24.6207 19.624C24.8379 19.1171 24.9103 18.5377 24.9103 18.0308C24.8379 17.0895 23.8241 16.4377 22.6655 16.4377C19.5517 16.5102 17.3069 18.0308 15.7138 20.6377C15.6414 20.7102 15.6414 20.855 15.569 21.0722C16.8724 20.1308 17.9586 18.9722 19.769 18.9722Z" fill="#848484"/>
<path d="M23.6793 15.8585C25.279 15.8585 26.5759 14.5617 26.5759 12.962C26.5759 11.3623 25.279 10.0654 23.6793 10.0654C22.0796 10.0654 20.7828 11.3623 20.7828 12.962C20.7828 14.5617 22.0796 15.8585 23.6793 15.8585Z" fill="#848484"/>
</svg>
