<?xml version="1.0" encoding="utf-8"?>
<!-- Generator: Adobe Illustrator 23.0.6, SVG Export Plug-In . SVG Version: 6.00 Build 0)  -->
<svg version="1.1" xmlns="http://www.w3.org/2000/svg" xmlns:xlink="http://www.w3.org/1999/xlink" x="0px" y="0px"
	 viewBox="0 0 560 416" style="enable-background:new 0 0 560 416;" xml:space="preserve">
<g id="Layer_1">
</g>
<g id="Layer_2">
	<g>
		<g>
			<path d="M426.1,60.4C388.5,23.1,336.7,0,279.7,0c-50.9,0-97.6,18.4-133.8,49c-4.6,3.9-9.1,8-13.3,12.3l20.1,23.8
				c4.3-4.4,8.8-8.7,13.6-12.7C196.9,46.6,236.5,31,279.7,31c47.5,0,90.7,18.9,122.5,49.5l-14.3,12.1l27.8,2.4l21.5,1.8l1.9-22.2
				l2.3-27.2L426.1,60.4z"/>
			<path d="M406.8,330.9c-4.3,4.4-8.8,8.7-13.6,12.7c-30.7,25.8-70.3,41.4-113.5,41.4c-47.7,0-91-19-122.9-49.8l13.5-11.3l-26.1-2.2
				l-21.5-1.8l-1.9,22.2l-2.2,25.5l14.4-12.2c37.6,37.5,89.5,60.8,146.7,60.8c50.9,0,97.6-18.4,133.8-49c4.6-3.9,9.1-8,13.3-12.3
				L406.8,330.9z"/>
		</g>
		<g>
			<path d="M226.5,242H1.5c-0.8,0-1.5,0.7-1.5,1.5v40.8c0,0.8,0.7,1.5,1.5,1.5h7.9c0.8,0,1.5,0.7,1.5,1.5v7.8c0,0.8,0.7,1.5,1.5,1.5
				h203.2c0.8,0,1.5-0.7,1.5-1.5v-7.8c0-0.8,0.7-1.5,1.5-1.5h7.9c0.8,0,1.5-0.7,1.5-1.5v-40.8C228,242.6,227.3,242,226.5,242z
				 M24.7,273.2c0,2-1.7,3.7-3.7,3.7c-2,0-3.7-1.7-3.7-3.7v-19.7c0-2,1.7-3.7,3.7-3.7c2,0,3.7,1.7,3.7,3.7V273.2z M39.1,273.2
				c0,2-1.7,3.7-3.7,3.7s-3.7-1.7-3.7-3.7v-19.7c0-2,1.7-3.7,3.7-3.7s3.7,1.7,3.7,3.7V273.2z M53.4,273.2c0,2-1.7,3.7-3.7,3.7
				c-2,0-3.7-1.7-3.7-3.7v-19.7c0-2,1.7-3.7,3.7-3.7c2,0,3.7,1.7,3.7,3.7V273.2z M67.8,273.2c0,2-1.7,3.7-3.7,3.7
				c-2,0-3.7-1.7-3.7-3.7v-19.7c0-2,1.7-3.7,3.7-3.7c2,0,3.7,1.7,3.7,3.7V273.2z M180.4,267.2c-2.2,0-3.9-1.8-3.9-3.9
				c0-2.2,1.8-3.9,3.9-3.9c2.2,0,3.9,1.8,3.9,3.9C184.3,265.5,182.6,267.2,180.4,267.2z M193.6,267.2c-2.2,0-3.9-1.8-3.9-3.9
				c0-2.2,1.8-3.9,3.9-3.9c2.2,0,3.9,1.8,3.9,3.9C197.5,265.5,195.8,267.2,193.6,267.2z M206.7,267.2c-2.2,0-3.9-1.8-3.9-3.9
				c0-2.2,1.8-3.9,3.9-3.9s3.9,1.8,3.9,3.9C210.7,265.5,208.9,267.2,206.7,267.2z"/>
			<path d="M226.5,180.7H1.5c-0.8,0-1.5,0.7-1.5,1.5V223c0,0.8,0.7,1.5,1.5,1.5h7.9c0.8,0,1.5,0.7,1.5,1.5v7.8
				c0,0.8,0.7,1.5,1.5,1.5h203.2c0.8,0,1.5-0.7,1.5-1.5V226c0-0.8,0.7-1.5,1.5-1.5h7.9c0.8,0,1.5-0.7,1.5-1.5v-40.8
				C228,181.4,227.3,180.7,226.5,180.7z M24.7,211.9c0,2-1.7,3.7-3.7,3.7c-2,0-3.7-1.7-3.7-3.7v-19.7c0-2,1.7-3.7,3.7-3.7
				c2,0,3.7,1.7,3.7,3.7V211.9z M39.1,211.9c0,2-1.7,3.7-3.7,3.7s-3.7-1.7-3.7-3.7v-19.7c0-2,1.7-3.7,3.7-3.7s3.7,1.7,3.7,3.7V211.9
				z M53.4,211.9c0,2-1.7,3.7-3.7,3.7c-2,0-3.7-1.7-3.7-3.7v-19.7c0-2,1.7-3.7,3.7-3.7c2,0,3.7,1.7,3.7,3.7V211.9z M67.8,211.9
				c0,2-1.7,3.7-3.7,3.7c-2,0-3.7-1.7-3.7-3.7v-19.7c0-2,1.7-3.7,3.7-3.7c2,0,3.7,1.7,3.7,3.7V211.9z M180.4,206
				c-2.2,0-3.9-1.8-3.9-3.9c0-2.2,1.8-3.9,3.9-3.9c2.2,0,3.9,1.8,3.9,3.9C184.3,204.2,182.6,206,180.4,206z M193.6,206
				c-2.2,0-3.9-1.8-3.9-3.9c0-2.2,1.8-3.9,3.9-3.9c2.2,0,3.9,1.8,3.9,3.9C197.5,204.2,195.8,206,193.6,206z M206.7,206
				c-2.2,0-3.9-1.8-3.9-3.9c0-2.2,1.8-3.9,3.9-3.9s3.9,1.8,3.9,3.9C210.7,204.2,208.9,206,206.7,206z"/>
			<path d="M226.5,119.5H1.5c-0.8,0-1.5,0.7-1.5,1.5v40.8c0,0.8,0.7,1.5,1.5,1.5h7.9c0.8,0,1.5,0.7,1.5,1.5v7.8
				c0,0.8,0.7,1.5,1.5,1.5h203.2c0.8,0,1.5-0.7,1.5-1.5v-7.8c0-0.8,0.7-1.5,1.5-1.5h7.9c0.8,0,1.5-0.7,1.5-1.5V121
				C228,120.2,227.3,119.5,226.5,119.5z M24.7,150.7c0,2-1.7,3.7-3.7,3.7c-2,0-3.7-1.7-3.7-3.7V131c0-2,1.7-3.7,3.7-3.7
				c2,0,3.7,1.7,3.7,3.7V150.7z M39.1,150.7c0,2-1.7,3.7-3.7,3.7s-3.7-1.7-3.7-3.7V131c0-2,1.7-3.7,3.7-3.7s3.7,1.7,3.7,3.7V150.7z
				 M53.4,150.7c0,2-1.7,3.7-3.7,3.7c-2,0-3.7-1.7-3.7-3.7V131c0-2,1.7-3.7,3.7-3.7c2,0,3.7,1.7,3.7,3.7V150.7z M67.8,150.7
				c0,2-1.7,3.7-3.7,3.7c-2,0-3.7-1.7-3.7-3.7V131c0-2,1.7-3.7,3.7-3.7c2,0,3.7,1.7,3.7,3.7V150.7z M180.4,144.7
				c-2.2,0-3.9-1.8-3.9-3.9c0-2.2,1.8-3.9,3.9-3.9c2.2,0,3.9,1.8,3.9,3.9C184.3,143,182.6,144.7,180.4,144.7z M193.6,144.7
				c-2.2,0-3.9-1.8-3.9-3.9c0-2.2,1.8-3.9,3.9-3.9c2.2,0,3.9,1.8,3.9,3.9C197.5,143,195.8,144.7,193.6,144.7z M206.7,144.7
				c-2.2,0-3.9-1.8-3.9-3.9c0-2.2,1.8-3.9,3.9-3.9s3.9,1.8,3.9,3.9C210.7,143,208.9,144.7,206.7,144.7z"/>
			<path d="M558.5,242h-225c-0.8,0-1.5,0.7-1.5,1.5v40.8c0,0.8,0.7,1.5,1.5,1.5h7.9c0.8,0,1.5,0.7,1.5,1.5v7.8
				c0,0.8,0.7,1.5,1.5,1.5h203.2c0.8,0,1.5-0.7,1.5-1.5v-7.8c0-0.8,0.7-1.5,1.5-1.5h7.9c0.8,0,1.5-0.7,1.5-1.5v-40.8
				C560,242.6,559.3,242,558.5,242z M356.7,273.2c0,2-1.7,3.7-3.7,3.7c-2,0-3.7-1.7-3.7-3.7v-19.7c0-2,1.7-3.7,3.7-3.7
				c2,0,3.7,1.7,3.7,3.7V273.2z M371.1,273.2c0,2-1.7,3.7-3.7,3.7s-3.7-1.7-3.7-3.7v-19.7c0-2,1.7-3.7,3.7-3.7s3.7,1.7,3.7,3.7
				V273.2z M385.5,273.2c0,2-1.7,3.7-3.7,3.7c-2,0-3.7-1.7-3.7-3.7v-19.7c0-2,1.7-3.7,3.7-3.7c2,0,3.7,1.7,3.7,3.7V273.2z
				 M399.8,273.2c0,2-1.7,3.7-3.7,3.7s-3.7-1.7-3.7-3.7v-19.7c0-2,1.7-3.7,3.7-3.7s3.7,1.7,3.7,3.7V273.2z M512.5,267.2
				c-2.2,0-3.9-1.8-3.9-3.9c0-2.2,1.8-3.9,3.9-3.9c2.2,0,3.9,1.8,3.9,3.9C516.4,265.5,514.6,267.2,512.5,267.2z M525.6,267.2
				c-2.2,0-3.9-1.8-3.9-3.9c0-2.2,1.8-3.9,3.9-3.9c2.2,0,3.9,1.8,3.9,3.9C529.5,265.5,527.8,267.2,525.6,267.2z M538.8,267.2
				c-2.2,0-3.9-1.8-3.9-3.9c0-2.2,1.8-3.9,3.9-3.9c2.2,0,3.9,1.8,3.9,3.9C542.7,265.5,540.9,267.2,538.8,267.2z"/>
			<path d="M558.5,180.7h-225c-0.8,0-1.5,0.7-1.5,1.5V223c0,0.8,0.7,1.5,1.5,1.5h7.9c0.8,0,1.5,0.7,1.5,1.5v7.8
				c0,0.8,0.7,1.5,1.5,1.5h203.2c0.8,0,1.5-0.7,1.5-1.5V226c0-0.8,0.7-1.5,1.5-1.5h7.9c0.8,0,1.5-0.7,1.5-1.5v-40.8
				C560,181.4,559.3,180.7,558.5,180.7z M356.7,211.9c0,2-1.7,3.7-3.7,3.7c-2,0-3.7-1.7-3.7-3.7v-19.7c0-2,1.7-3.7,3.7-3.7
				c2,0,3.7,1.7,3.7,3.7V211.9z M371.1,211.9c0,2-1.7,3.7-3.7,3.7s-3.7-1.7-3.7-3.7v-19.7c0-2,1.7-3.7,3.7-3.7s3.7,1.7,3.7,3.7
				V211.9z M385.5,211.9c0,2-1.7,3.7-3.7,3.7c-2,0-3.7-1.7-3.7-3.7v-19.7c0-2,1.7-3.7,3.7-3.7c2,0,3.7,1.7,3.7,3.7V211.9z
				 M399.8,211.9c0,2-1.7,3.7-3.7,3.7s-3.7-1.7-3.7-3.7v-19.7c0-2,1.7-3.7,3.7-3.7s3.7,1.7,3.7,3.7V211.9z M512.5,206
				c-2.2,0-3.9-1.8-3.9-3.9c0-2.2,1.8-3.9,3.9-3.9c2.2,0,3.9,1.8,3.9,3.9C516.4,204.2,514.6,206,512.5,206z M525.6,206
				c-2.2,0-3.9-1.8-3.9-3.9c0-2.2,1.8-3.9,3.9-3.9c2.2,0,3.9,1.8,3.9,3.9C529.5,204.2,527.8,206,525.6,206z M538.8,206
				c-2.2,0-3.9-1.8-3.9-3.9c0-2.2,1.8-3.9,3.9-3.9c2.2,0,3.9,1.8,3.9,3.9C542.7,204.2,540.9,206,538.8,206z"/>
			<path d="M558.5,119.5h-225c-0.8,0-1.5,0.7-1.5,1.5v40.8c0,0.8,0.7,1.5,1.5,1.5h7.9c0.8,0,1.5,0.7,1.5,1.5v7.8
				c0,0.8,0.7,1.5,1.5,1.5h203.2c0.8,0,1.5-0.7,1.5-1.5v-7.8c0-0.8,0.7-1.5,1.5-1.5h7.9c0.8,0,1.5-0.7,1.5-1.5V121
				C560,120.2,559.3,119.5,558.5,119.5z M356.7,150.7c0,2-1.7,3.7-3.7,3.7c-2,0-3.7-1.7-3.7-3.7V131c0-2,1.7-3.7,3.7-3.7
				c2,0,3.7,1.7,3.7,3.7V150.7z M371.1,150.7c0,2-1.7,3.7-3.7,3.7s-3.7-1.7-3.7-3.7V131c0-2,1.7-3.7,3.7-3.7s3.7,1.7,3.7,3.7V150.7z
				 M385.5,150.7c0,2-1.7,3.7-3.7,3.7c-2,0-3.7-1.7-3.7-3.7V131c0-2,1.7-3.7,3.7-3.7c2,0,3.7,1.7,3.7,3.7V150.7z M399.8,150.7
				c0,2-1.7,3.7-3.7,3.7s-3.7-1.7-3.7-3.7V131c0-2,1.7-3.7,3.7-3.7s3.7,1.7,3.7,3.7V150.7z M512.5,144.7c-2.2,0-3.9-1.8-3.9-3.9
				c0-2.2,1.8-3.9,3.9-3.9c2.2,0,3.9,1.8,3.9,3.9C516.4,143,514.6,144.7,512.5,144.7z M525.6,144.7c-2.2,0-3.9-1.8-3.9-3.9
				c0-2.2,1.8-3.9,3.9-3.9c2.2,0,3.9,1.8,3.9,3.9C529.5,143,527.8,144.7,525.6,144.7z M538.8,144.7c-2.2,0-3.9-1.8-3.9-3.9
				c0-2.2,1.8-3.9,3.9-3.9c2.2,0,3.9,1.8,3.9,3.9C542.7,143,540.9,144.7,538.8,144.7z"/>
		</g>
	</g>
</g>
</svg>
