<?xml version="1.0" encoding="utf-8"?>
<!-- Generator: Adobe Illustrator 23.0.6, SVG Export Plug-In . SVG Version: 6.00 Build 0)  -->
<svg version="1.1" id="Layer_1" xmlns="http://www.w3.org/2000/svg" xmlns:xlink="http://www.w3.org/1999/xlink" x="0px" y="0px"
	 viewBox="0 0 141 43" style="enable-background:new 0 0 141 43;" xml:space="preserve">
<style type="text/css">
	.st0{fill:#FFFFFF;}
	.st1{fill:#1EB6DB;}
	.st2{fill:#2E435E;}
</style>
<path class="st0" d="M132.9,33.1c0.1,0,0.3,0.1,0.5,0.1c0.2,0,0.4,0.1,0.6,0.2c0.2,0.1,0.3,0.2,0.4,0.4c0.1,0.2,0.2,0.4,0.2,0.6
	c0,0.4-0.2,0.7-0.5,0.9c-0.4,0.2-0.8,0.4-1.3,0.3c-0.2,0-0.4,0-0.6-0.1c-0.2,0-0.3-0.1-0.5-0.2c-0.1-0.1-0.3-0.2-0.4-0.3
	c-0.1-0.1-0.2-0.2-0.2-0.4l0.6-0.2c0.1,0.1,0.2,0.2,0.4,0.3c0.2,0.1,0.4,0.1,0.6,0.1c0.1,0,0.2,0,0.3,0c0.1,0,0.2,0,0.3-0.1
	c0.1,0,0.2-0.1,0.3-0.2c0.1-0.1,0.1-0.2,0.1-0.3c0-0.1,0-0.1,0-0.2c0-0.1-0.1-0.1-0.1-0.2c-0.1-0.1-0.2-0.1-0.3-0.2
	c-0.2-0.1-0.4-0.1-0.6-0.2c-0.2,0-0.4-0.1-0.6-0.1c-0.2,0-0.3-0.1-0.5-0.2c-0.1-0.1-0.3-0.2-0.4-0.3c-0.1-0.2-0.1-0.3-0.1-0.5
	c0-0.3,0.1-0.6,0.4-0.9c0.3-0.2,0.7-0.4,1.1-0.3c0.2,0,0.4,0,0.5,0.1c0.2,0,0.3,0.1,0.5,0.2c0.1,0.1,0.3,0.2,0.4,0.3
	c0.1,0.1,0.2,0.2,0.2,0.4l-0.6,0.2c-0.1-0.1-0.2-0.2-0.4-0.3c-0.2-0.1-0.4-0.1-0.6-0.1c-0.2,0-0.5,0-0.7,0.1
	c-0.1,0.1-0.2,0.2-0.2,0.4c0,0,0,0.1,0,0.1c0,0.1,0.1,0.1,0.1,0.1c0.1,0.1,0.2,0.1,0.3,0.1C132.5,33,132.7,33.1,132.9,33.1z"/>
<path class="st0" d="M137.2,33.1c0.1,0,0.3,0.1,0.5,0.1c0.2,0,0.4,0.1,0.6,0.2c0.2,0.1,0.3,0.2,0.4,0.4c0.1,0.2,0.2,0.4,0.2,0.6
	c0,0.4-0.2,0.7-0.5,0.9c-0.4,0.2-0.8,0.4-1.3,0.3c-0.2,0-0.4,0-0.6-0.1c-0.2,0-0.3-0.1-0.5-0.2c-0.1-0.1-0.3-0.2-0.4-0.3
	c-0.1-0.1-0.2-0.2-0.2-0.4l0.6-0.2c0.1,0.1,0.2,0.2,0.4,0.3c0.2,0.1,0.4,0.1,0.6,0.1c0.1,0,0.2,0,0.3,0c0.1,0,0.2,0,0.3-0.1
	c0.1,0,0.2-0.1,0.3-0.2c0.1-0.1,0.1-0.2,0.1-0.3c0-0.1,0-0.1,0-0.2c0-0.1-0.1-0.1-0.1-0.2c-0.1-0.1-0.2-0.1-0.3-0.2
	c-0.2-0.1-0.4-0.1-0.6-0.2c-0.2,0-0.4-0.1-0.6-0.1c-0.2,0-0.3-0.1-0.5-0.2c-0.1-0.1-0.3-0.2-0.4-0.3c-0.1-0.2-0.1-0.3-0.1-0.5
	c0-0.3,0.1-0.6,0.4-0.9c0.3-0.2,0.7-0.4,1.1-0.3c0.2,0,0.4,0,0.5,0.1c0.2,0,0.3,0.1,0.5,0.2c0.1,0.1,0.3,0.2,0.4,0.3
	c0.1,0.1,0.2,0.2,0.2,0.3l-0.6,0.2c-0.1-0.1-0.2-0.2-0.4-0.3c-0.2-0.1-0.4-0.1-0.6-0.1c-0.2,0-0.5,0-0.7,0.1
	c-0.1,0.1-0.2,0.2-0.2,0.4c0,0,0,0.1,0,0.1c0,0.1,0.1,0.1,0.1,0.1c0.1,0.1,0.2,0.1,0.3,0.1C136.8,33,137,33.1,137.2,33.1z"/>
<path class="st0" d="M140.1,35.5v-5.8h0.7v5.8H140.1z"/>
<path class="st0" d="M128.2,34.7c0.6,0,1.1-0.5,1.1-1.1c0-0.6-0.5-1.1-1.1-1.1c-0.6,0-1.1,0.5-1.1,1.1
	C127.1,34.2,127.6,34.7,128.2,34.7z"/>
<path class="st0" d="M97.5,32.8c0,0.1,0,0.1,0,0.2c0,0,0,0.1,0,0.1v2.5h-0.7v-2.3c0-0.1,0-0.2,0-0.3c0-0.1-0.1-0.3-0.1-0.4
	c-0.1-0.1-0.2-0.2-0.3-0.3c-0.2-0.1-0.3-0.1-0.5-0.1c-0.2,0-0.4,0-0.6,0.1c-0.3,0.1-0.5,0.4-0.5,0.6c0,0.1,0,0.2-0.1,0.3v2.4H94
	v-5.8h0.7V32c0,0,0-0.1,0.1-0.1c0.1-0.1,0.1-0.1,0.2-0.2c0.1-0.1,0.2-0.1,0.4-0.2c0.2-0.1,0.4-0.1,0.5-0.1c0.3,0,0.5,0,0.7,0.1
	c0.2,0.1,0.3,0.2,0.5,0.3c0.1,0.1,0.2,0.3,0.3,0.4C97.4,32.5,97.5,32.6,97.5,32.8z"/>
<path class="st0" d="M101.2,35.7c-0.3,0-0.6-0.1-0.8-0.2c-0.3-0.1-0.5-0.3-0.7-0.5c-0.2-0.2-0.3-0.4-0.5-0.7
	c-0.1-0.3-0.2-0.5-0.2-0.8c0-0.3,0.1-0.6,0.2-0.8c0.1-0.3,0.3-0.5,0.5-0.7c0.2-0.2,0.4-0.4,0.7-0.5c0.5-0.2,1.1-0.2,1.6,0
	c0.3,0.1,0.5,0.3,0.7,0.5c0.2,0.2,0.3,0.4,0.5,0.7c0.1,0.3,0.2,0.5,0.2,0.8c0,0.3-0.1,0.6-0.2,0.8c-0.1,0.3-0.3,0.5-0.5,0.7
	c-0.2,0.2-0.4,0.4-0.7,0.5C101.8,35.6,101.5,35.7,101.2,35.7z M101.2,32.1c-0.2,0-0.4,0-0.6,0.1c-0.2,0.1-0.3,0.2-0.5,0.3
	c-0.1,0.1-0.2,0.3-0.3,0.5c-0.2,0.5-0.1,1.2,0.3,1.6c0.1,0.1,0.3,0.2,0.5,0.3c0.2,0.1,0.4,0.1,0.6,0.1c0.2,0,0.4,0,0.6-0.1
	c0.2-0.1,0.3-0.2,0.5-0.3c0.1-0.1,0.2-0.3,0.3-0.5c0.1-0.4,0.1-0.8,0-1.1c-0.1-0.2-0.2-0.3-0.3-0.5c-0.1-0.1-0.3-0.2-0.5-0.3
	C101.6,32.2,101.4,32.1,101.2,32.1z"/>
<path class="st0" d="M106.5,33.1c0.1,0,0.3,0.1,0.5,0.1c0.2,0,0.4,0.1,0.6,0.2c0.2,0.1,0.3,0.2,0.4,0.4c0.1,0.2,0.2,0.4,0.2,0.6
	c0,0.4-0.2,0.7-0.5,0.9c-0.4,0.2-0.8,0.4-1.3,0.3c-0.2,0-0.4,0-0.6-0.1c-0.2,0-0.3-0.1-0.5-0.2c-0.1-0.1-0.3-0.2-0.4-0.3
	c-0.1-0.1-0.2-0.2-0.2-0.3l0.6-0.2c0.1,0.1,0.2,0.2,0.4,0.3c0.2,0.1,0.4,0.1,0.6,0.1c0.1,0,0.2,0,0.3,0c0.1,0,0.2,0,0.3-0.1
	c0.1,0,0.2-0.1,0.3-0.2c0.1-0.1,0.1-0.2,0.1-0.3c0-0.1,0-0.1,0-0.2c0-0.1-0.1-0.1-0.1-0.2c-0.1-0.1-0.2-0.1-0.3-0.2
	c-0.2-0.1-0.4-0.1-0.6-0.2c-0.2,0-0.4-0.1-0.6-0.1c-0.2,0-0.3-0.1-0.5-0.2c-0.1-0.1-0.3-0.2-0.4-0.3c-0.1-0.2-0.1-0.3-0.1-0.5
	c0-0.3,0.1-0.6,0.4-0.9c0.3-0.2,0.7-0.4,1.1-0.3c0.2,0,0.4,0,0.5,0.1c0.2,0,0.3,0.1,0.5,0.2c0.1,0.1,0.3,0.2,0.4,0.3
	c0.1,0.1,0.2,0.2,0.2,0.3l-0.6,0.2c-0.1-0.1-0.2-0.2-0.4-0.3c-0.2-0.1-0.4-0.1-0.6-0.1c-0.2,0-0.5,0-0.7,0.1
	c-0.1,0.1-0.2,0.2-0.2,0.4c0,0,0,0.1,0,0.1c0,0.1,0.1,0.1,0.1,0.1c0.1,0.1,0.2,0.1,0.3,0.1C106.1,33,106.3,33.1,106.5,33.1z"/>
<path class="st0" d="M111.8,35.6l-0.1,0c-0.1,0-0.2,0-0.3,0c-0.1,0-0.2,0-0.4,0c-0.1,0-0.3-0.1-0.4-0.2c-0.4-0.3-0.6-0.7-0.6-1.4
	v-1.8h-0.5v-0.7h0.5v-1.8h0.7v1.8h0.8v0.7h-0.8v1.8c0,0.4,0.1,0.7,0.2,0.8c0,0,0.1,0.1,0.2,0.1c0.1,0,0.1,0,0.2,0s0.1,0,0.2,0
	L111.8,35.6z"/>
<path class="st0" d="M114.1,30.5c0,0.1,0,0.2-0.1,0.3c-0.1,0.1-0.2,0.1-0.3,0.1c-0.1,0-0.2,0-0.3-0.1c-0.1-0.1-0.1-0.2-0.1-0.3
	c0-0.1,0-0.2,0.1-0.3c0.1-0.1,0.2-0.1,0.3-0.1c0.1,0,0.2,0,0.3,0.1C114.1,30.2,114.1,30.3,114.1,30.5z M114,35.5h-0.7v-4h0.7V35.5z"
	/>
<path class="st0" d="M119.5,32.8c0,0.1,0,0.1,0,0.2s0,0.1,0,0.1v2.5h-0.7v-2.3c0-0.1,0-0.2,0-0.3c0-0.1-0.1-0.3-0.1-0.4
	c-0.1-0.1-0.2-0.2-0.3-0.3c-0.2-0.1-0.3-0.1-0.5-0.1c-0.2,0-0.4,0-0.6,0.1c-0.1,0.1-0.3,0.2-0.4,0.3c-0.1,0.1-0.1,0.2-0.2,0.3
	c0,0.1,0,0.2-0.1,0.3v2.4H116v-4h0.7v0.4c0,0,0.1-0.1,0.1-0.1c0.1-0.1,0.1-0.1,0.2-0.2c0.1-0.1,0.2-0.1,0.4-0.2
	c0.2-0.1,0.3-0.1,0.5-0.1c0.3,0,0.5,0,0.8,0.1c0.2,0.1,0.4,0.2,0.5,0.3c0.1,0.1,0.2,0.3,0.3,0.4C119.4,32.5,119.5,32.6,119.5,32.8z"
	/>
<path class="st0" d="M125.2,31.6v3.7c0,0.3,0,0.6-0.1,0.9c-0.1,0.3-0.2,0.5-0.4,0.7s-0.4,0.4-0.6,0.5c-0.3,0.1-0.5,0.2-0.8,0.2
	c-0.3,0-0.6-0.1-0.8-0.2c-0.2-0.1-0.4-0.3-0.6-0.4c-0.1-0.1-0.2-0.3-0.3-0.4l-0.1-0.2l0.6-0.3l0.1,0.1c0.1,0.1,0.1,0.2,0.2,0.3
	c0.1,0.1,0.2,0.2,0.4,0.3c0.2,0.1,0.3,0.1,0.5,0.1c0.4,0,0.8-0.2,1-0.5c0.1-0.2,0.2-0.3,0.2-0.5c0-0.2,0.1-0.4,0.1-0.6v-0.3
	c-0.2,0.2-0.4,0.3-0.6,0.5c-0.5,0.2-1,0.2-1.5,0c-0.2-0.1-0.5-0.3-0.6-0.5c-0.2-0.2-0.3-0.4-0.4-0.7c-0.2-0.5-0.2-1.1,0-1.7
	c0.1-0.3,0.2-0.5,0.4-0.7c0.2-0.2,0.4-0.4,0.6-0.5c0.5-0.2,1-0.2,1.5,0c0.2,0.1,0.5,0.3,0.6,0.5v-0.5H125.2z M123.1,35
	c0.2,0,0.4,0,0.5-0.1c0.2-0.1,0.3-0.2,0.4-0.3c0.1-0.1,0.2-0.3,0.3-0.5c0.1-0.4,0.1-0.8,0-1.1c-0.1-0.2-0.2-0.3-0.3-0.5
	c-0.1-0.1-0.3-0.2-0.4-0.3c-0.3-0.2-0.7-0.2-1,0c-0.2,0.1-0.3,0.2-0.4,0.3c-0.1,0.1-0.2,0.3-0.3,0.5c-0.1,0.4-0.1,0.8,0,1.1
	c0.1,0.2,0.2,0.3,0.3,0.5c0.1,0.1,0.3,0.2,0.4,0.3C122.8,35,123,35,123.1,35z"/>
<path class="st0" d="M90.7,34.7c0.6,0,1.1-0.5,1.1-1.1c0-0.6-0.5-1.1-1.1-1.1c-0.6,0-1.1,0.5-1.1,1.1C89.6,34.2,90.1,34.7,90.7,34.7
	z"/>
<path class="st0" d="M55.6,29.8v5.8H55v-0.5c-0.2,0.2-0.4,0.3-0.6,0.5c-0.2,0.1-0.5,0.2-0.8,0.2c-0.3,0-0.5-0.1-0.8-0.2
	c-0.2-0.1-0.5-0.3-0.6-0.5c-0.4-0.4-0.6-0.9-0.6-1.5c0-0.3,0.1-0.6,0.2-0.8c0.1-0.3,0.2-0.5,0.4-0.7c0.2-0.2,0.4-0.4,0.6-0.5
	c0.5-0.2,1-0.2,1.5,0c0.2,0.1,0.5,0.3,0.6,0.5v-2.3L55.6,29.8L55.6,29.8z M53.6,35c0.2,0,0.4,0,0.5-0.1c0.2-0.1,0.3-0.2,0.4-0.3
	c0.1-0.1,0.2-0.3,0.3-0.5c0.1-0.4,0.1-0.8,0-1.1c-0.1-0.2-0.2-0.3-0.3-0.5c-0.1-0.1-0.3-0.2-0.4-0.3c-0.3-0.2-0.7-0.2-1,0
	c-0.2,0.1-0.3,0.2-0.4,0.3c-0.1,0.1-0.2,0.3-0.3,0.5c-0.1,0.4-0.1,0.8,0,1.1c0.1,0.2,0.2,0.3,0.3,0.5c0.1,0.1,0.3,0.2,0.4,0.3
	C53.3,35,53.5,35,53.6,35z"/>
<path class="st0" d="M59.4,35.7c-0.3,0-0.6-0.1-0.8-0.2c-0.3-0.1-0.5-0.3-0.7-0.5s-0.4-0.4-0.5-0.7c-0.2-0.5-0.2-1.1,0-1.7
	c0.1-0.3,0.3-0.5,0.5-0.7c0.2-0.2,0.4-0.4,0.7-0.5c0.5-0.2,1.1-0.2,1.6,0c0.3,0.1,0.5,0.3,0.7,0.5c0.2,0.2,0.4,0.4,0.5,0.7
	c0.2,0.5,0.2,1.1,0,1.7c-0.1,0.3-0.3,0.5-0.5,0.7c-0.2,0.2-0.4,0.4-0.7,0.5C60,35.6,59.7,35.7,59.4,35.7z M59.4,32.1
	c-0.2,0-0.4,0-0.6,0.1c-0.2,0.1-0.3,0.2-0.5,0.3c-0.1,0.1-0.2,0.3-0.3,0.5c-0.2,0.5-0.1,1.2,0.3,1.6c0.1,0.1,0.3,0.2,0.5,0.3
	C59,35,59.2,35,59.4,35s0.4,0,0.6-0.1c0.3-0.1,0.6-0.4,0.7-0.8c0.1-0.4,0.1-0.8,0-1.1c-0.1-0.2-0.2-0.3-0.3-0.5
	c-0.1-0.1-0.3-0.2-0.5-0.3C59.8,32.2,59.6,32.1,59.4,32.1z"/>
<path class="st0" d="M66.9,31.4c0.3,0,0.5,0,0.7,0.1c0.1,0,0.2,0.1,0.3,0.2c0.1,0.1,0.2,0.2,0.2,0.3c0.1,0.1,0.1,0.3,0.2,0.4
	c0,0.2,0.1,0.4,0.1,0.5v2.6h-0.7v-2.6c0-0.2,0-0.3-0.1-0.5c0-0.1-0.1-0.2-0.2-0.2c-0.1,0-0.2-0.1-0.3-0.1c-0.1,0-0.2,0-0.2,0
	c-0.2,0-0.4,0.1-0.6,0.2c-0.2,0.2-0.2,0.4-0.2,0.6v2.6h-0.7v-2.6c0-0.2,0-0.3-0.1-0.5c0-0.1-0.1-0.2-0.2-0.2c-0.1,0-0.2-0.1-0.3-0.1
	c-0.1,0-0.2,0-0.2,0c-0.2,0-0.4,0.1-0.6,0.2s-0.2,0.4-0.2,0.6v2.6h-0.7v-4h0.7v0.3c0.1-0.1,0.2-0.2,0.3-0.3c0.1,0,0.1-0.1,0.2-0.1
	c0.1,0,0.1-0.1,0.2-0.1c0.1,0,0.1,0,0.2,0c0.2,0,0.3,0,0.5,0c0.1,0,0.3,0.1,0.4,0.2c0.2,0.1,0.3,0.2,0.4,0.4c0,0,0,0,0,0
	c0,0,0,0,0,0c0.1-0.1,0.1-0.2,0.2-0.2c0.1-0.1,0.2-0.1,0.2-0.2c0.1,0,0.2-0.1,0.3-0.1C66.7,31.5,66.8,31.4,66.9,31.4z"/>
<path class="st0" d="M74,31.6v4h-0.7v-0.5c-0.2,0.2-0.4,0.3-0.6,0.5c-0.5,0.2-1,0.2-1.5,0c-0.2-0.1-0.5-0.3-0.6-0.5
	c-0.2-0.2-0.3-0.4-0.4-0.7c-0.2-0.5-0.2-1.1,0-1.7c0.1-0.3,0.2-0.5,0.4-0.7c0.2-0.2,0.4-0.4,0.6-0.5c0.2-0.1,0.5-0.2,0.8-0.2
	c0.3,0,0.5,0.1,0.8,0.2c0.2,0.1,0.4,0.3,0.6,0.5v-0.5H74z M72,35c0.2,0,0.4,0,0.5-0.1c0.2-0.1,0.3-0.2,0.4-0.3
	c0.1-0.1,0.2-0.3,0.3-0.5c0.1-0.4,0.1-0.8,0-1.1c-0.1-0.2-0.2-0.3-0.3-0.5c-0.1-0.1-0.3-0.2-0.4-0.3c-0.3-0.2-0.7-0.2-1,0
	c-0.2,0.1-0.3,0.2-0.4,0.3c-0.1,0.1-0.2,0.3-0.3,0.5c-0.1,0.4-0.1,0.8,0,1.1c0.1,0.2,0.2,0.3,0.3,0.5c0.1,0.1,0.3,0.2,0.4,0.3
	C71.6,35,71.8,35,72,35z"/>
<path class="st0" d="M76.8,30.5c0,0.1,0,0.2-0.1,0.3c-0.1,0.1-0.2,0.1-0.3,0.1s-0.2,0-0.3-0.1c-0.1-0.1-0.1-0.2-0.1-0.3
	c0-0.1,0-0.2,0.1-0.3c0.1-0.1,0.2-0.1,0.3-0.1s0.2,0,0.3,0.1C76.7,30.2,76.8,30.3,76.8,30.5z M76.7,35.6H76v-4h0.7V35.6z"/>
<path class="st0" d="M82.2,32.8c0,0.1,0,0.1,0,0.2c0,0,0,0.1,0,0.1v2.5h-0.7v-2.3c0-0.1,0-0.2,0-0.3c0-0.1-0.1-0.3-0.1-0.4
	c-0.1-0.1-0.2-0.2-0.3-0.3c-0.2-0.1-0.3-0.1-0.5-0.1c-0.2,0-0.4,0-0.6,0.1c-0.1,0.1-0.3,0.2-0.4,0.3c-0.1,0.1-0.1,0.2-0.2,0.3
	c0,0.1,0,0.2-0.1,0.3v2.4h-0.7v-4h0.7V32c0,0,0.1-0.1,0.1-0.1c0.1-0.1,0.1-0.1,0.2-0.2c0.1-0.1,0.2-0.1,0.4-0.2
	c0.2-0.1,0.3-0.1,0.5-0.1c0.3,0,0.5,0,0.7,0.1c0.2,0.1,0.4,0.2,0.5,0.3c0.1,0.1,0.2,0.3,0.3,0.4C82.1,32.5,82.2,32.6,82.2,32.8z"/>
<path class="st0" d="M85.6,33.1c0.1,0,0.3,0.1,0.5,0.1c0.2,0.1,0.4,0.1,0.6,0.2c0.2,0.1,0.3,0.2,0.4,0.4c0.1,0.2,0.2,0.4,0.2,0.6
	c0,0.4-0.2,0.7-0.5,0.9c-0.4,0.2-0.8,0.4-1.3,0.3c-0.2,0-0.4,0-0.6-0.1c-0.2,0-0.3-0.1-0.5-0.2c-0.1-0.1-0.3-0.2-0.4-0.3
	c-0.1-0.1-0.2-0.2-0.2-0.4l0.6-0.2c0.1,0.1,0.2,0.2,0.4,0.3c0.2,0.1,0.4,0.1,0.6,0.1c0.1,0,0.2,0,0.3,0s0.2,0,0.3-0.1
	c0.1,0,0.2-0.1,0.3-0.2c0.1-0.1,0.1-0.2,0.1-0.3c0-0.1,0-0.1,0-0.2c0-0.1-0.1-0.1-0.1-0.2c-0.1-0.1-0.2-0.1-0.3-0.2
	c-0.2-0.1-0.4-0.1-0.6-0.2c-0.2,0-0.4-0.1-0.6-0.1c-0.2,0-0.3-0.1-0.5-0.2c-0.1-0.1-0.3-0.2-0.4-0.3C84,33,84,32.9,84,32.7
	c0-0.3,0.1-0.6,0.4-0.9c0.3-0.2,0.7-0.4,1.1-0.3c0.2,0,0.4,0,0.5,0.1c0.2,0,0.3,0.1,0.5,0.2c0.1,0.1,0.3,0.2,0.4,0.3
	c0.1,0.1,0.2,0.2,0.2,0.4l-0.6,0.2c-0.1-0.1-0.2-0.2-0.4-0.3c-0.2-0.1-0.4-0.1-0.6-0.1c-0.2,0-0.5,0-0.7,0.1
	c-0.1,0.1-0.2,0.2-0.2,0.4c0,0,0,0.1,0,0.1c0,0.1,0.1,0.1,0.1,0.1C85,33,85,33,85.1,33.1C85.3,33.1,85.5,33.1,85.6,33.1z"/>
<path class="st0" d="M56.1,10.8c1,0,2.1,0.2,3.1,0.6c1.9,0.8,3.4,2.3,4.2,4.2c0.8,1.9,0.8,4.1,0,6.1c-0.8,1.9-2.3,3.4-4.2,4.2
	c-1,0.4-2,0.6-3.1,0.6h-4.5V10.8H56.1z M56.1,24.4c0.8,0,1.5-0.2,2.2-0.5c1.4-0.6,2.5-1.7,3.1-3.1c0.6-1.4,0.6-3,0-4.5
	c-0.6-1.4-1.7-2.5-3.1-3.1c-0.7-0.3-1.5-0.5-2.2-0.5h-2.4v11.5H56.1z"/>
<path class="st0" d="M79.1,10.8v15.6h-2.1l-7.9-11.9v11.9h-2.1V10.8h2.1L77,22.7V10.8H79.1z"/>
<path class="st0" d="M95.4,10.8v15.6h-2.1v-6.8h-7.8v6.8h-2.1V10.8h2.1v6.8h7.8v-6.8H95.4z"/>
<path class="st0" d="M107.1,10.4c1.1,0,2.2,0.2,3.2,0.6c2,0.8,3.6,2.4,4.4,4.4c0.9,2,0.9,4.3,0,6.4c-0.8,2-2.4,3.5-4.4,4.4
	c-2.1,0.9-4.4,0.9-6.5,0c-1-0.4-1.9-1-2.6-1.8c-0.8-0.7-1.3-1.6-1.8-2.6c-0.9-2-0.9-4.3,0-6.4c0.4-1,1-1.9,1.8-2.6
	c0.7-0.7,1.6-1.4,2.6-1.8C104.9,10.6,106,10.4,107.1,10.4z M107.1,24.8c0.8,0,1.6-0.2,2.4-0.5c0.7-0.3,1.4-0.8,2-1.3
	c0.6-0.6,1-1.2,1.3-2c0.3-0.8,0.5-1.6,0.5-2.4c0-0.8-0.2-1.6-0.5-2.4c-0.6-1.5-1.8-2.6-3.3-3.3c-0.8-0.3-1.6-0.5-2.4-0.5
	c-0.8,0-1.7,0.2-2.4,0.5c-0.7,0.3-1.4,0.8-2,1.3c-0.6,0.6-1,1.2-1.3,2c-0.3,0.8-0.5,1.6-0.5,2.4c0,0.8,0.2,1.6,0.5,2.4
	c0.3,0.7,0.8,1.4,1.3,2c0.6,0.6,1.2,1,2,1.3C105.4,24.6,106.3,24.8,107.1,24.8z"/>
<path class="st0" d="M123.1,17.2c1,0.2,1.9,0.6,2.8,1c0.6,0.3,1.2,0.8,1.7,1.3c0.4,0.4,0.7,0.9,0.8,1.4c0.1,0.4,0.2,0.9,0.2,1.3
	c0,0.6-0.2,1.3-0.5,1.8c-0.3,0.6-0.7,1.1-1.2,1.5c-0.6,0.4-1.2,0.8-1.8,1c-0.7,0.3-1.5,0.4-2.2,0.4c-0.7,0-1.4-0.1-2.1-0.3
	c-0.6-0.2-1.2-0.5-1.7-0.9c-0.5-0.4-0.9-0.8-1.2-1.3c-0.3-0.5-0.5-1-0.6-1.6l1.9-0.4c0.2,0.7,0.7,1.3,1.3,1.7
	c0.7,0.5,1.6,0.7,2.5,0.7c0.5,0,0.9-0.1,1.4-0.2c0.4-0.1,0.8-0.3,1.2-0.5c0.3-0.2,0.6-0.5,0.8-0.8c0.2-0.3,0.3-0.6,0.3-1
	c0-1.4-1.3-2.4-3.9-3c-0.6-0.2-1.2-0.3-1.9-0.5c-0.6-0.2-1.2-0.4-1.7-0.8c-0.5-0.3-0.9-0.7-1.2-1.2c-0.4-0.6-0.5-1.2-0.5-1.9
	c0-0.6,0.1-1.2,0.4-1.8c0.3-0.5,0.6-1,1.1-1.4c0.5-0.4,1.1-0.7,1.7-0.9c0.7-0.2,1.4-0.4,2.2-0.3c0.7,0,1.3,0.1,2,0.3
	c0.6,0.2,1.1,0.5,1.6,0.9c0.5,0.4,0.8,0.8,1.1,1.3c0.3,0.5,0.5,1.1,0.6,1.6l-1.9,0.4c-0.2-0.7-0.6-1.3-1.1-1.8
	c-0.6-0.5-1.3-0.7-2.3-0.7c-1,0-1.8,0.2-2.3,0.7c-0.5,0.4-0.8,1-0.8,1.7c0,0.3,0,0.5,0.1,0.7c0.1,0.2,0.3,0.5,0.5,0.6
	c0.3,0.2,0.7,0.4,1.1,0.5C121.7,16.8,122.4,17,123.1,17.2z"/>
<path class="st0" d="M141,10.8v2h-4.7v13.7h-2.1V12.8h-4.7v-2H141z"/>
<path class="st1" d="M43.3,21.5c0,11.9-9.7,21.5-21.6,21.5S0,33.4,0,21.5C0,9.6,9.7,0,21.7,0C33.6,0,43.3,9.6,43.3,21.5z"/>
<path class="st2" d="M40.2,21.5c0,10.2-8.3,18.4-18.6,18.4S3.1,31.7,3.1,21.5c0-10.2,8.3-18.4,18.6-18.4S40.2,11.3,40.2,21.5z"/>
<path class="st0" d="M24.8,32.1c-0.2,0-0.4-0.1-0.6-0.2c-0.6-0.3-0.8-1.1-0.5-1.7L39.1,4.1c0.3-0.6,1.1-0.8,1.7-0.5
	c0.6,0.3,0.8,1.1,0.5,1.7L25.9,31.5C25.7,31.9,25.2,32.1,24.8,32.1z"/>
<path class="st0" d="M16.1,32.1c-0.2,0-0.4-0.1-0.6-0.2c-0.6-0.3-0.8-1.1-0.5-1.7l11-18.8c0.3-0.6,1.1-0.8,1.7-0.5
	c0.6,0.3,0.8,1.1,0.5,1.7l-11,18.8C17,31.9,16.6,32.1,16.1,32.1z"/>
<path class="st0" d="M3.3,39.2c-0.2,0-0.4-0.1-0.6-0.2c-0.6-0.3-0.8-1.1-0.5-1.7l15.2-25.9c0.3-0.6,1.1-0.8,1.7-0.5
	c0.6,0.3,0.8,1.1,0.5,1.7L4.4,38.6C4.1,39,3.7,39.2,3.3,39.2z"/>
</svg>
