<?xml version="1.0" encoding="utf-8"?>
<!-- Generator: Adobe Illustrator 23.0.6, SVG Export Plug-In . SVG Version: 6.00 Build 0)  -->
<svg version="1.1" id="Layer_1" xmlns="http://www.w3.org/2000/svg" xmlns:xlink="http://www.w3.org/1999/xlink" x="0px" y="0px"
	 viewBox="0 0 1662 1335" style="enable-background:new 0 0 1662 1335;" xml:space="preserve">
<style type="text/css">
	.st0{display:none;}
	.st1{display:inline;}
	.st2{fill:none;}
</style>
<g class="st0">
	<g class="st1">
		<path d="M548.5,495.8c-1.3,0-2.4,0.9-2.8,2.2l-50.6,199.7l-5.9-21.9l-41-152.8l-6.7-25c-0.3-1.2-1.5-2.1-2.8-2.1h-38.1
			c-1.3,0-2.4,0.9-2.8,2.1l-53.7,199.8L293.4,498c-0.3-1.3-1.5-2.2-2.8-2.2h-53.3c-0.9,0-1.7,0.4-2.3,1.1c-0.5,0.7-0.7,1.6-0.5,2.5
			l78,273.6c0.3,1.2,1.5,2.1,2.7,2.1h51.3c1.3,0,2.4-0.9,2.8-2.1l50.5-191.6l23.6,90.1L470,773c0.3,1.2,1.5,2.1,2.8,2.1h24.1H524
			c1.3,0,2.4-0.8,2.7-2.1L605,499.5c0.2-0.9,0.1-1.8-0.5-2.5c-0.5-0.7-1.4-1.1-2.3-1.1L548.5,495.8L548.5,495.8z"/>
		<path d="M1015.7,497c-0.5-0.7-1.4-1.1-2.3-1.1h-53.7c-1.3,0-2.5,0.9-2.8,2.2l-50.6,199.7l-52.5-195.3l-1.2-4.5
			c-0.3-1.2-1.5-2.1-2.8-2.1h-38.1c-1.3,0-2.4,0.9-2.7,2.1l-0.8,3l-52.9,196.8L704.6,498c-0.3-1.3-1.5-2.2-2.8-2.2h-53.3
			c-0.9,0-1.7,0.4-2.3,1.1c-0.5,0.7-0.7,1.6-0.5,2.5l78,273.6c0.3,1.2,1.4,2.1,2.7,2.1h51.3c1.3,0,2.4-0.9,2.8-2.1l27.7-105.1
			l22.8-86.5l22.8,87.3L881.1,773c0.3,1.2,1.5,2.1,2.8,2.1h51.2c1.3,0,2.4-0.8,2.7-2.1l5-17.6l11-38.3l62.3-217.6
			C1016.4,498.6,1016.3,497.7,1015.7,497z"/>
		<path d="M1137.6,775h26.9h0.6h23.7c1.3,0,2.4-0.9,2.8-2.1l27-102.3l23.5-89.3l50.1,191.6c0.3,1.2,1.5,2.1,2.8,2.1h51.3
			c1.3,0,2.4-0.8,2.7-2.1l78.3-273.5c0.2-0.9,0.1-1.8-0.5-2.5c-0.5-0.7-1.4-1.1-2.3-1.1h-53.7c-1.3,0-2.4,0.9-2.8,2.2l-50.6,199.7
			L1263.8,498c-0.3-1.2-1.5-2.1-2.8-2.1h-38.1c-1.3,0-2.4,0.9-2.8,2.1l-6.4,23.7l-41,152.4l-6.4,23.7L1115.8,498
			c-0.3-1.3-1.5-2.2-2.8-2.2h-53.3c-0.9,0-1.7,0.4-2.3,1.1c-0.5,0.7-0.7,1.6-0.5,2.5l70.6,248l7.3,25.5
			C1135.2,774.2,1136.4,775,1137.6,775z"/>
	</g>
	<g class="st1">
		<path class="st2" d="M462.9,418.5H193.4h-24.5c-12.6,0-22.8,10.2-22.8,22.8v388.1c0,12.6,10.2,22.8,22.8,22.8h24.5h269.5h45.9
			h299.3V418.5H508.8H462.9z"/>
		<path d="M568.5,1045.4c58.3,129.8,143.6,215.9,239.7,227.7v-239.6C725.8,1034.2,645.1,1038.2,568.5,1045.4z"/>
		<path d="M568.7,224.8c76.3,7.3,157,11.4,239.4,12V-2.3C712.3,9.5,627,95.3,568.7,224.8z"/>
		<path d="M745.3-32.5C580-11.5,433.4,69.3,328,187.6c59.2,13.4,124.8,24.2,194.7,32.3C577,94.7,655.3,3.5,745.3-32.5z"/>
		<path d="M522.4,1050.2c-70,7.9-135.9,18.6-195.5,31.7c105.5,119,252.4,200.3,418.3,221.4C655,1267.3,576.7,1175.8,522.4,1050.2z"
			/>
		<path d="M808.2,852.3H508.8h-45.9H193.4h-24.5c-12.6,0-22.8-10.2-22.8-22.8V441.4c0-12.6,10.2-22.8,22.8-22.8h24.5h269.5h45.9
			h299.3v-45.7v-90.3c-88.8-0.7-175.7-5.3-257.5-13.6c-12.3,32.6-22.9,67.3-31.8,104h-46.3c9-38.2,20-74.6,32.6-109
			c-75.8-9.2-146.5-21.6-209.5-37c-34.1,44.6-62.9,93.6-85.1,146h-41.7c-37.8,0-68.5,30.7-68.5,68.5v388.1
			c0,37.8,30.7,68.5,68.5,68.5h41.7c22,51.8,50.3,100.3,83.9,144.5c63.5-15.1,134.5-27.3,210.4-36.3
			c-12.5-34.1-23.4-70.3-32.4-108.3h46.3c8.8,36.4,19.4,70.9,31.5,103.3c82.1-8.2,169.1-12.8,257.8-13.4V898v-45.7H808.2z"/>
	</g>
	<g class="st1">
		<path class="st2" d="M1195.9,418.5h269.5h24.5c12.6,0,22.8,10.2,22.8,22.8v388.1c0,12.6-10.2,22.8-22.8,22.8h-24.5h-269.5H1150
			H850.7V418.5H1150H1195.9z"/>
		<path d="M1090.3,1045.4c-58.3,129.8-143.6,215.9-239.7,227.7v-239.6C933,1034.2,1013.7,1038.2,1090.3,1045.4z"/>
		<path d="M1090.1,224.8c-76.3,7.3-157,11.4-239.4,12V-2.3C946.5,9.5,1031.8,95.3,1090.1,224.8z"/>
		<path d="M913.5-32.5c165.3,21,311.8,101.8,417.3,220.1c-59.2,13.4-124.8,24.2-194.7,32.3C1081.8,94.7,1003.5,3.5,913.5-32.5z"/>
		<path d="M1136.4,1050.2c70,7.9,135.9,18.6,195.5,31.7c-105.5,119-252.4,200.3-418.3,221.4
			C1003.8,1267.3,1082.1,1175.8,1136.4,1050.2z"/>
		<path d="M850.6,852.3h299.3h45.9h269.5h24.5c12.6,0,22.8-10.2,22.8-22.8V441.4c0-12.6-10.2-22.8-22.8-22.8h-24.5h-269.5H1150
			H850.6v-45.7v-90.3c88.8-0.7,175.7-5.3,257.5-13.6c12.3,32.6,22.9,67.3,31.8,104h46.3c-9-38.2-20-74.6-32.6-109
			c75.8-9.2,146.5-21.6,209.5-37c34.1,44.6,62.9,93.6,85.1,146h41.7c37.8,0,68.5,30.7,68.5,68.5v388.1c0,37.8-30.7,68.5-68.5,68.5
			h-41.7c-22,51.8-50.3,100.3-83.9,144.5c-63.5-15.1-134.5-27.3-210.4-36.3c12.5-34.1,23.4-70.3,32.4-108.3H1140
			c-8.8,36.4-19.4,70.9-31.5,103.3c-82.1-8.2-169.1-12.8-257.8-13.4V898v-45.7H850.6z"/>
	</g>
</g>
<g id="Layer_4">
</g>
<g>
	<path d="M447.9,528c-1.3,0-2.4,0.9-2.8,2.2l-50.6,199.6l-5.9-21.9l-41.1-152.7l-6.7-25c-0.3-1.2-1.5-2.1-2.8-2.1h-38
		c-1.3,0-2.4,0.9-2.8,2.1l-53.7,199.7l-50.6-199.6c-0.3-1.3-1.5-2.2-2.8-2.2h-53.3c-0.9,0-1.7,0.4-2.3,1.1c-0.5,0.7-0.7,1.6-0.5,2.5
		l78,273.2c0.3,1.2,1.5,2.1,2.7,2.1H266c1.3,0,2.4-0.9,2.8-2.1l50.5-191.5l23.6,90.1l26.5,101.4c0.3,1.2,1.5,2.1,2.8,2.1h24.1h27.1
		c1.3,0,2.4-0.8,2.7-2.1l78.3-273.3c0.2-0.9,0.1-1.8-0.5-2.5s-1.4-1.1-2.3-1.1H447.9z"/>
	<path d="M707.4,1304.8v-239.5c-82.3,0.6-163,4.7-239.6,11.9C526.1,1207,611.4,1293,707.4,1304.8z"/>
	<path d="M468.1,257.2c76.3,7.3,156.9,11.4,239.3,12v-239C611.5,42,526.3,127.7,468.1,257.2z"/>
	<path d="M644.5,0c-165.2,21-311.6,101.7-417,220c59.1,13.4,124.7,24.2,194.6,32.3C476.4,127.1,554.5,35.9,644.5,0z"/>
	<path d="M421.7,1082c-69.9,7.9-135.8,18.6-195.3,31.7c105.4,118.9,252.3,200.2,418,221.3C554.3,1299,476,1207.5,421.7,1082z"/>
	<path d="M362.3,884.4L362.3,884.4l-269.4-0.1H68.5c-12.6,0-22.8-10.2-22.8-22.8V473.6c0-12.6,10.2-22.8,22.8-22.8H93h269.4h45.9
		h299.2v-45.6v-90.3c-88.8-0.7-175.6-5.3-257.4-13.6c-12.3,32.6-22.9,67.3-31.8,103.9H372c9-38.2,20-74.6,32.6-108.9
		c-75.8-9.2-146.4-21.6-209.4-37c-34.1,44.6-62.8,93.5-85,145.9H68.5C30.7,405.1,0,435.8,0,473.6v387.9C0,899.2,30.7,930,68.5,930
		h41.7c21.9,51.8,50.3,100.2,83.9,144.4c63.5-15.1,134.4-27.3,210.3-36.3c-12.5-34.1-23.4-70.3-32.3-108.2h46.3
		c8.8,36.4,19.4,70.9,31.5,103.3c82.1-8.2,169-12.8,257.6-13.4V930v-45.6H408.2H362.3z"/>
	<path d="M753,700.6l27.3,104.3c0.3,1.2,1.5,2.1,2.8,2.1h16.3c-36.7-72.3-48.6-154.1-35.6-232.6L753,534.6l-1.2-4.5
		c-0.3-1-1-1.7-2-2c-0.2-0.1-0.5-0.1-0.8-0.1h-38.1c-1.3,0-2.4,0.9-2.7,2.1l-0.8,3l-52.9,196.7l-50.6-199.6
		c-0.3-1.3-1.5-2.2-2.8-2.2h-53.3c-0.9,0-1.7,0.4-2.3,1.1c-0.5,0.7-0.7,1.6-0.5,2.5l78,273.3c0.3,1.2,1.4,2.1,2.7,2.1h51.2
		c1.3,0,2.4-0.9,2.8-2.1l27.7-105v0l22.8-86.5l19.6,75L753,700.6z"/>
	<path d="M1267,530.2l-50.6,199.6l-53.7-199.7c-0.3-1.2-1.5-2.1-2.8-2.1h-38.1c-1.3,0-2.4,0.9-2.8,2.1l-6.4,23.7l-41,152.3
		l-6.4,23.7l-50.6-199.6c-0.3-1.3-1.5-2.2-2.8-2.2h-53.3c-0.9,0-1.7,0.4-2.3,1.1c-0.5,0.7-0.7,1.6-0.5,2.5l70.6,247.8l7.3,25.5
		c0.3,1.2,1.5,2.1,2.7,2.1h26.9h0.6h23.7c1.3,0,2.4-0.9,2.8-2.1l27-102.2l23.5-89.3l50.1,191.5c0.3,1.2,1.5,2.1,2.8,2.1h51.2
		c1.3,0,2.4-0.8,2.7-2.1l78.2-272.9c-0.7-1.3-1.5-2.6-2.2-4c-0.1,0-0.3,0-0.4,0h-53.4C1268.5,528,1267.4,528.9,1267,530.2z"/>
	<path d="M989.4,1077.3c-76.6-7.2-157.2-11.3-239.6-11.9v239.5C845.8,1293,931.1,1207,989.4,1077.3z"/>
	<path d="M749.8,30.2v239c82.4-0.6,163-4.7,239.3-12C930.8,127.7,845.6,42,749.8,30.2z"/>
	<path d="M1035.1,252.3c69.8-8.1,135.4-18.9,194.6-32.3C1124.3,101.8,977.8,21,812.7,0C902.6,35.9,980.8,127.1,1035.1,252.3z"/>
	<path d="M812.8,1335c165.7-21.1,312.6-102.3,418-221.3c-59.6-13.1-125.4-23.8-195.3-31.7C981.1,1207.6,902.8,1299,812.8,1335z"/>
	<path d="M1247.8,996.3c-36.3,11.3-74.1,17-112.2,17c-24.3,0-48.3-2.3-71.8-6.8c-3.5,10.7-7.1,21.3-10.9,31.7
		c75.9,9,146.8,21.2,210.3,36.3c24.8-32.6,46.7-67.6,65.3-104.5l-6-6C1298.9,977.3,1273.9,988.2,1247.8,996.3z"/>
	<path d="M1020.6,995.3c-9.1-2.9-18-6.1-26.9-9.7c-46.9-18.9-88.8-46.7-124.8-82.7c-6.1-6.1-11.8-12.3-17.4-18.6H749.8v45.6v89.8
		c88.6,0.7,175.5,5.2,257.6,13.4C1012,1020.8,1016.4,1008.2,1020.6,995.3z"/>
	<path d="M868.9,369.5c25.2-25.2,53.5-46.5,84.2-63.4c-65.6,5.2-133.9,8.2-203.4,8.7v90.3v45.6h57.4
		C823.6,421.7,844.2,394.3,868.9,369.5z"/>
	<path d="M1277.6,286.7c2.1,0.9,4.1,1.8,6.2,2.7c-7-10.3-14.2-20.3-21.8-30.2c-13.6,3.3-27.6,6.5-41.8,9.5
		C1239.7,273.2,1258.9,279.2,1277.6,286.7z"/>
	<path d="M1326.2,531.6c0.2-0.9,0.1-1.8-0.5-2.5c-0.5-0.6-1.1-1-1.9-1.1c0.8,1.3,1.5,2.6,2.2,4L1326.2,531.6z"/>
	<path d="M1644.8,1062.6l-233.7-233.7c91.7-131.1,79.1-313.4-37.8-430.4c-65.5-65.5-151.6-98.3-237.7-98.3S963.4,333,897.9,398.5
		c-131.1,131.1-131.1,344.4,0,475.4c65.5,65.5,151.6,98.3,237.7,98.3c67.5,0,135.1-20.2,192.7-60.5l233.7,233.7
		c11.4,11.4,26.4,17.2,41.4,17.2s30-5.7,41.4-17.2C1667.7,1122.5,1667.7,1085.4,1644.8,1062.6z M1318.1,818.7
		c-50.3,50.3-116.4,75.5-182.5,75.5s-132.2-25.1-182.5-75.5c-100.6-100.6-100.6-264.3,0-364.9c50.3-50.3,116.4-75.5,182.5-75.5
		s132.2,25.1,182.5,75.5C1418.7,554.4,1418.7,718.1,1318.1,818.7z"/>
</g>
</svg>
