<?xml version="1.0" encoding="utf-8"?>
<!-- Generator: Adobe Illustrator 23.0.6, SVG Export Plug-In . SVG Version: 6.00 Build 0)  -->
<svg version="1.1" id="Layer_15" xmlns="http://www.w3.org/2000/svg" xmlns:xlink="http://www.w3.org/1999/xlink" x="0px" y="0px"
	 viewBox="0 0 50 45" style="enable-background:new 0 0 50 45;" xml:space="preserve">
<path d="M49.1,10.6h-5v5.9h4.1v2.6c0,0,0,0,0,0c1,1,1,2.7,0,3.7l0,0v14.9H13.9v-2.9h-1.8v3.8c0,0.5,0.4,0.9,0.9,0.9h36.1
	c0.5,0,0.9-0.4,0.9-0.9V11.5C50,11,49.6,10.6,49.1,10.6z M36.1,43.2H1.8V21.9h2.9V16H0.9C0.4,16,0,16.4,0,16.9v27.2
	C0,44.6,0.4,45,0.9,45H37c0.5,0,0.9-0.4,0.9-0.9v-2.8h-1.8V43.2z M2.7,18c0.5,0,0.9,0.4,0.9,0.9c0,0.5-0.4,0.9-0.9,0.9
	S1.8,19.5,1.8,19C1.8,18.5,2.2,18,2.7,18z M13.8,11.8l2.8-0.1l0.2-0.9l-3.5-0.3L13.8,11.8z M34,21c-1.3,1.3-2.1,3.1-2.1,5
	c0,1.9,0.7,3.7,2.1,5c1.3,1.3,3.1,2.1,5,2.1c1.9,0,3.7-0.7,5-2.1c1.3-1.3,2.1-3.1,2.1-5c0-0.3,0-0.6-0.1-0.8l-1.4,1.4
	c-0.1,1.3-0.7,2.6-1.6,3.5c-1.1,1.1-2.5,1.7-4,1.7c-1.5,0-2.9-0.6-4-1.7c-1.1-1.1-1.7-2.5-1.7-4c0-1.5,0.6-3,1.7-4
	c1.1-1.1,2.5-1.7,4-1.7c1.2,0,2.4,0.4,3.3,1.1l1-1c-1.2-1-2.7-1.5-4.3-1.5C37.1,18.9,35.3,19.6,34,21z M16.1,21.7
	c0-0.1-0.1-0.2-0.2-0.2h-3.1c-0.1,0-0.2,0.1-0.2,0.2v3.2c0,0.1,0.1,0.2,0.2,0.2h3.1c0.1,0,0.2-0.1,0.2-0.2V21.7z M15.6,24.6H13v-2.7
	h2.6V24.6z M36.5,24.8c-0.3-0.3-0.9-0.3-1.2,0c-0.3,0.3-0.3,0.9,0,1.2l3.7,3.7l8.1-8.1c0.3-0.3,0.3-0.9,0-1.2
	c-0.3-0.3-0.9-0.3-1.2,0l-6.9,6.9L36.5,24.8z M16.1,17.2c0-0.1-0.1-0.2-0.2-0.2h-3.1c-0.1,0-0.2,0.1-0.2,0.2v3.2
	c0,0.1,0.1,0.2,0.2,0.2h3.1c0.1,0,0.2-0.1,0.2-0.2V17.2z M15.6,20.1H13v-2.7h2.6V20.1z M15.8,25.9h-3.1c-0.1,0-0.2,0.1-0.2,0.2v3.2
	c0,0.1,0.1,0.2,0.2,0.2h3.1c0.1,0,0.2-0.1,0.2-0.2v-3.2C16.1,26,16,25.9,15.8,25.9z M15.6,29.1H13v-2.7h2.6V29.1z M18.1,18.8
	c0,0.3,0.2,0.5,0.5,0.5h2c0.3,0,0.5-0.2,0.5-0.5s-0.2-0.5-0.5-0.5h-2C18.4,18.2,18.1,18.5,18.1,18.8z M27.9,28.3h2.5
	c-0.1-0.4-0.2-0.7-0.2-1.1h-2.3c-0.3,0-0.5,0.2-0.5,0.5S27.6,28.3,27.9,28.3z M35.6,12.9c0-0.3-0.2-0.5-0.5-0.5H21.8
	c-0.3,0-0.5,0.2-0.5,0.5c0,0.3,0.2,0.5,0.5,0.5H35C35.3,13.5,35.6,13.2,35.6,12.9z M18.3,14.2V9.2c0-0.9-0.7-1.5-1.5-1.5h-4.9
	c-0.8,0-1.5,0.7-1.5,1.5v4.9c0,0.9,0.7,1.5,1.5,1.5h4.9C17.6,15.7,18.3,15,18.3,14.2z M13.6,13c0,0-0.2,0.7-0.3,0.9
	c-0.1,0.2-0.2,0.4-0.4,0.4c-0.1,0-0.2-0.1-0.3-0.2c-0.1-0.1-0.1-0.2,0-0.3l0.6-1.6l-0.7-1.9l0,0l-0.1-0.3l-1-0.2
	c-0.2,0-0.3-0.2-0.3-0.4c0-0.2,0.2-0.3,0.4-0.3l1.2,0.2c0.1,0,0.2,0.1,0.3,0.2L13,9.8l4.2,0.3c0.1,0,0.2,0.1,0.3,0.1
	c0.1,0.1,0.1,0.2,0.1,0.3l-0.4,1.6c0,0.2-0.2,0.3-0.3,0.3l-3.1,0.1L13.6,13z M14.3,14.4c-0.3,0-0.5-0.2-0.5-0.5s0.2-0.5,0.5-0.5
	c0.3,0,0.5,0.2,0.5,0.5S14.6,14.4,14.3,14.4z M15.9,14.4c-0.3,0-0.5-0.2-0.5-0.5c0-0.3,0.2-0.5,0.5-0.5c0.3,0,0.5,0.2,0.5,0.5
	C16.4,14.1,16.2,14.4,15.9,14.4z M21.8,11h13.5c0.3,0,0.5-0.2,0.5-0.5c0-0.3-0.2-0.5-0.5-0.5H21.8c-0.3,0-0.5,0.2-0.5,0.5
	C21.2,10.7,21.5,11,21.8,11z M7.4,33.1h26.3c-0.3-0.2-0.6-0.5-0.9-0.8c-0.3-0.3-0.6-0.6-0.8-1H8.3V5.9h32.3v11.3
	c0.6,0.1,1.2,0.3,1.8,0.5V0.9c0-0.5-0.4-0.9-0.9-0.9h-34C6.9,0,6.5,0.4,6.5,0.9v31.3C6.5,32.7,6.9,33.1,7.4,33.1z M15.3,2
	c0.5,0,0.9,0.4,0.9,0.9c0,0.5-0.4,0.9-0.9,0.9c-0.5,0-0.9-0.4-0.9-0.9C14.4,2.4,14.8,2,15.3,2z M12.3,2c0.5,0,0.9,0.4,0.9,0.9
	c0,0.5-0.4,0.9-0.9,0.9c-0.5,0-0.9-0.4-0.9-0.9C11.3,2.4,11.8,2,12.3,2z M9.2,2c0.5,0,0.9,0.4,0.9,0.9c0,0.5-0.4,0.9-0.9,0.9
	C8.7,3.9,8.3,3.5,8.3,3C8.3,2.4,8.7,2,9.2,2z M31.2,18.8c0-0.3-0.2-0.5-0.5-0.5H24c-0.3,0-0.5,0.2-0.5,0.5s0.2,0.5,0.5,0.5h6.6
	C30.9,19.3,31.2,19.1,31.2,18.8z M28.4,23.2c0-0.3-0.2-0.5-0.5-0.5h-2c-0.3,0-0.5,0.2-0.5,0.5s0.2,0.5,0.5,0.5h2
	C28.2,23.8,28.4,23.5,28.4,23.2z M18.7,27.2c-0.3,0-0.5,0.2-0.5,0.5s0.2,0.5,0.5,0.5h1.8c0.3,0,0.5-0.2,0.5-0.5s-0.2-0.5-0.5-0.5
	H18.7z M23.5,23.2c0-0.3-0.2-0.5-0.5-0.5h-4.2c-0.3,0-0.5,0.2-0.5,0.5s0.2,0.5,0.5,0.5h4.2C23.2,23.8,23.5,23.5,23.5,23.2z
	 M23.5,28.3h2c0.3,0,0.5-0.2,0.5-0.5s-0.2-0.5-0.5-0.5h-2c-0.3,0-0.5,0.2-0.5,0.5S23.2,28.3,23.5,28.3z"/>
</svg>
