<?xml version="1.0" encoding="utf-8"?>
<!-- Generator: Adobe Illustrator 23.0.6, SVG Export Plug-In . SVG Version: 6.00 Build 0)  -->
<svg version="1.1" id="Layer_1" xmlns="http://www.w3.org/2000/svg" xmlns:xlink="http://www.w3.org/1999/xlink" x="0px" y="0px"
	 viewBox="0 0 300 226" style="enable-background:new 0 0 300 226;" xml:space="preserve">
<style type="text/css">
	.st0{fill:#FFFFFF;}
</style>
<path class="st0" d="M227,0c21.6,0,39.1,17.5,39.1,39.1S248.6,78.2,227,78.2s-39.1-17.5-39.1-39.1S205.4,0,227,0z M150,47.7
	c21.6,0,39.1,17.5,39.1,39.1s-17.5,39.1-39.1,39.1s-39.1-17.5-39.1-39.1S128.4,47.7,150,47.7z M73,0c21.6,0,39.1,17.5,39.1,39.1
	S94.6,78.2,73,78.2S33.9,60.7,33.9,39.1S51.4,0,73,0z M29.2,173l-5.1-31.3v29.8c-10.3-3.2-19-7.3-25.6-12.1v-23.6
	c0-24.9,8.5-48,55.5-52.7c5.7,2.9,12.2,4.6,19,4.6c6.9,0,13.3-1.7,19.1-4.6c3,0.3,5.7,0.6,8.4,1.1c0,0.8-0.1,1.7-0.1,2.6
	c0,14,5.9,26.7,15.3,35.8c-32.2,6.8-48.8,25.2-50.6,55.6C52.2,177.6,40,175.8,29.2,173z M222.8,208.4c-6.4,4.3-14.5,8-23.9,10.8
	v-29.9l-5.2,31.3c-12.9,3.4-27.8,5.3-43.7,5.3c-16,0-30.9-2-43.9-5.4l-5.1-31.3V219c-10.3-3.2-19-7.3-25.6-12.1v-23.6
	c0-24.9,8.5-48,55.5-52.7c5.7,2.9,12.2,4.6,19,4.6c6.9,0,13.3-1.7,19.1-4.6c47.7,4.7,53.7,27.7,53.7,52.7L222.8,208.4L222.8,208.4z
	 M301.5,159.4c-6.6,4.8-15.3,9-25.6,12.1v-29.8l-5.1,31.3c-11.2,3-24,4.8-37.6,5.3c-0.9-22.8-8.9-47.4-48.8-55.8
	c9.4-9,15.2-21.7,15.2-35.7c0-0.9,0-1.7-0.1-2.6c2.6-0.4,5.4-0.8,8.4-1.1c5.7,2.9,12.2,4.6,19.1,4.6c6.8,0,13.3-1.7,19-4.6
	c47,4.7,55.5,27.8,55.5,52.7L301.5,159.4L301.5,159.4z"/>
</svg>
