<?xml version="1.0" encoding="utf-8"?>
<!-- Generator: Adobe Illustrator 23.0.6, SVG Export Plug-In . SVG Version: 6.00 Build 0)  -->
<svg version="1.1" id="Layer_1" xmlns="http://www.w3.org/2000/svg" xmlns:xlink="http://www.w3.org/1999/xlink" x="0px" y="0px"
	 viewBox="0 0 430 500" style="enable-background:new 0 0 430 500;" xml:space="preserve">
<style type="text/css">
	.st0{fill:#2d5886;}
</style>
<g>
	<path class="st0" d="M215,395c-9.3,0-16.8,7.5-16.8,16.8s7.5,16.8,16.8,16.8s16.8-7.5,16.8-16.8S224.3,395,215,395L215,395z"/>
	<path class="st0" d="M123.6,388.4c13.4,0,24.2-10.9,24.2-24.3s-10.9-24.3-24.2-24.3c-13.4,0-24.2,10.9-24.2,24.3
		C99.3,377.6,110.2,388.4,123.6,388.4L123.6,388.4z"/>
	<path class="st0" d="M306.5,339.9c-13.4,0-24.2,10.9-24.2,24.3s10.9,24.3,24.2,24.3c13.4,0,24.2-10.9,24.2-24.3
		S319.8,339.9,306.5,339.9L306.5,339.9z"/>
	<path class="st0" d="M66.2,353.6H78c1.2-5,3.2-9.8,5.8-14l-8.4-8.4l15-15l8.4,8.4c4.3-2.7,9-4.7,14-5.8V307H134v11.8
		c5,1.2,9.8,3.2,14,5.8l8.4-8.4l15,15l-8.4,8.4c2.7,4.3,4.7,9,5.8,14h11.8v21.3h-11.8c-1.2,5-3.2,9.8-5.8,14l8.4,8.4l-15,15
		l-8.4-8.4c-4.3,2.7-9,4.7-14,5.8v11.8h-21.2v-11.8c-5-1.2-9.8-3.2-14-5.8l-8.4,8.4l-15-15l8.4-8.4c-2.7-4.3-4.7-9-5.8-14H66.2
		V353.6L66.2,353.6z M71.6,217.5c0-2.6,2.1-4.7,4.7-4.7h36.1c2.6,0,4.7,2.1,4.7,4.7v36.2c0,2.6-2.1,4.7-4.7,4.7H76.3
		c-2.6,0-4.7-2.1-4.7-4.7L71.6,217.5L71.6,217.5z M71.6,144.5c0-2.6,2.1-4.7,4.7-4.7h36.1c2.6,0,4.7,2.1,4.7,4.7v36.2
		c0,2.6-2.1,4.7-4.7,4.7H76.3c-2.6,0-4.7-2.1-4.7-4.7L71.6,144.5L71.6,144.5z M71.6,71.5c0-2.6,2.1-4.7,4.7-4.7h36.1
		c2.6,0,4.7,2.1,4.7,4.7v36.2c0,2.6-2.1,4.7-4.7,4.7H76.3c-2.6,0-4.7-2.1-4.7-4.7L71.6,71.5L71.6,71.5z M141.1,217.5
		c0-2.6,2.1-4.7,4.7-4.7h215c2.6,0,4.7,2.1,4.7,4.7v36.2c0,2.6-2.1,4.7-4.7,4.7h-215c-2.6,0-4.7-2.1-4.7-4.7L141.1,217.5
		L141.1,217.5z M141.1,144.5c0-2.6,2.1-4.7,4.7-4.7h235.8c2.6,0,4.7,2.1,4.7,4.7v36.2c0,2.6-2.1,4.7-4.7,4.7H145.8
		c-2.6,0-4.7-2.1-4.7-4.7V144.5L141.1,144.5z M141.1,71.5c0-2.6,2.1-4.7,4.7-4.7h173.3c2.6,0,4.7,2.1,4.7,4.7v36.2
		c0,2.6-2.1,4.7-4.7,4.7H145.8c-2.6,0-4.7-2.1-4.7-4.7V71.5L141.1,71.5z M363.8,374.8H352c-1.2,5-3.2,9.8-5.8,14l8.4,8.4l-15,15
		l-8.4-8.4c-4.3,2.7-9,4.7-14,5.8v11.8H296v-11.8c-5-1.2-9.8-3.2-14-5.8l-8.4,8.4l-15-15l8.4-8.4c-2.7-4.3-4.7-9-5.8-14h-11.8v-21.3
		h11.8c1.2-5,3.2-9.8,5.8-14l-8.4-8.4l15-15l8.4,8.4c4.3-2.7,9-4.7,14-5.8v-11.8h21.2v11.8c5,1.2,9.8,3.2,14,5.8l8.4-8.4l15,15
		l-8.4,8.4c2.7,4.3,4.7,9,5.8,14h11.8V374.8L363.8,374.8z M254.7,419.2h-8.2c-0.8,3.5-2.2,6.8-4,9.7l5.8,5.8l-10.4,10.4l-5.8-5.8
		c-3,1.8-6.2,3.2-9.7,4v8.2h-14.7v-8.2c-3.5-0.8-6.8-2.2-9.7-4l-5.8,5.8l-10.4-10.4l5.8-5.8c-1.8-3-3.2-6.2-4-9.7h-8.2v-14.7h8.2
		c0.8-3.5,2.2-6.8,4-9.7l-5.8-5.8l10.4-10.4l5.8,5.8c3-1.8,6.2-3.2,9.7-4v-8.2h14.7v8.2c3.5,0.8,6.8,2.2,9.7,4l5.8-5.8l10.4,10.4
		l-5.8,5.8c1.8,3,3.2,6.2,4,9.7h8.2V419.2L254.7,419.2z M41,500h348c22.6,0,41-18.4,41-41V41c0-22.7-18.4-41-41-41H41
		C18.4,0,0,18.4,0,41v418C0,481.6,18.4,500,41,500L41,500z"/>
</g>
</svg>
