<svg width="141" height="43" viewBox="0 0 141 43" fill="none" xmlns="http://www.w3.org/2000/svg">
<g clip-path="url(#clip0)">
<path d="M132.89 33.1267C133.029 33.1659 133.206 33.205 133.403 33.2442C133.601 33.2834 133.778 33.3618 133.956 33.4597C134.133 33.5577 134.272 33.6948 134.39 33.8515C134.508 34.0278 134.587 34.2433 134.568 34.4588C134.587 34.8114 134.41 35.164 134.114 35.3599C133.739 35.595 133.285 35.7126 132.831 35.693C132.654 35.693 132.456 35.6734 132.279 35.6342C132.121 35.595 131.963 35.5362 131.805 35.4579C131.667 35.3795 131.549 35.3012 131.43 35.1836C131.332 35.0857 131.253 34.9681 131.194 34.831L131.805 34.6155C131.904 34.7331 132.042 34.831 132.2 34.8898C132.397 34.9681 132.614 35.0073 132.831 35.0073C132.91 35.0073 133.009 35.0073 133.127 34.9877C133.246 34.9681 133.344 34.9485 133.463 34.9094C133.561 34.8702 133.66 34.8114 133.739 34.7526C133.818 34.6743 133.857 34.5763 133.857 34.4588C133.857 34.4 133.857 34.3413 133.838 34.3021C133.818 34.2433 133.778 34.1845 133.719 34.1454C133.62 34.067 133.522 34.0278 133.403 33.9886C133.206 33.9103 133.009 33.8711 132.792 33.8319C132.614 33.7927 132.437 33.7536 132.239 33.7144C132.062 33.6752 131.904 33.6164 131.746 33.5185C131.608 33.4401 131.49 33.3226 131.391 33.1854C131.292 33.0287 131.253 32.8524 131.253 32.6761C131.253 32.3431 131.391 32.0296 131.667 31.8141C132.003 31.5791 132.397 31.4615 132.792 31.4811C132.969 31.4811 133.147 31.5007 133.325 31.5399C133.482 31.5791 133.64 31.6378 133.798 31.7162C133.936 31.7945 134.055 31.8729 134.173 31.9905C134.272 32.0884 134.351 32.2059 134.41 32.3431L133.778 32.539C133.699 32.4214 133.581 32.3235 133.423 32.2647C133.246 32.1864 133.048 32.1668 132.851 32.1668C132.634 32.1472 132.397 32.2059 132.2 32.3039C132.062 32.3627 131.963 32.5194 131.963 32.6761C131.963 32.7153 131.963 32.7741 131.983 32.8132C132.003 32.872 132.042 32.9112 132.101 32.9308C132.18 32.9895 132.279 33.0287 132.377 33.0483C132.516 33.0483 132.693 33.0875 132.89 33.1267Z" fill="#282828"/>
<path d="M137.192 33.1267C137.33 33.1659 137.508 33.205 137.705 33.2442C137.902 33.2834 138.08 33.3618 138.257 33.4597C138.435 33.5577 138.573 33.6948 138.691 33.8515C138.81 34.0278 138.889 34.2433 138.869 34.4588C138.889 34.8114 138.711 35.164 138.415 35.3599C138.04 35.595 137.586 35.7126 137.133 35.693C136.955 35.693 136.758 35.6734 136.58 35.6342C136.422 35.595 136.264 35.5362 136.107 35.4579C135.968 35.3795 135.85 35.3012 135.732 35.1836C135.633 35.0857 135.534 34.9681 135.495 34.831L136.126 34.6155C136.225 34.7331 136.363 34.831 136.521 34.8898C136.718 34.9681 136.935 35.0073 137.152 35.0073C137.231 35.0073 137.33 35.0073 137.448 34.9877C137.567 34.9681 137.665 34.9485 137.784 34.9094C137.882 34.8702 137.981 34.8114 138.06 34.7526C138.139 34.6743 138.178 34.5763 138.178 34.4588C138.178 34.4 138.178 34.3413 138.159 34.3021C138.139 34.2433 138.099 34.1845 138.04 34.1454C137.942 34.067 137.843 34.0278 137.725 33.9886C137.527 33.9103 137.33 33.8711 137.113 33.8319C136.935 33.7927 136.758 33.7536 136.56 33.7144C136.383 33.6752 136.225 33.6164 136.067 33.5185C135.929 33.4401 135.811 33.3226 135.712 33.1854C135.613 33.0287 135.574 32.8524 135.574 32.6761C135.574 32.3431 135.712 32.0296 135.988 31.8141C136.324 31.5791 136.718 31.4615 137.113 31.4811C137.29 31.4811 137.468 31.5007 137.646 31.5399C137.803 31.5791 137.961 31.6378 138.119 31.7162C138.257 31.7945 138.376 31.8729 138.494 31.9905C138.593 32.0884 138.652 32.2059 138.711 32.3235L138.08 32.539C138.001 32.4214 137.882 32.3235 137.725 32.2647C137.547 32.1864 137.35 32.1668 137.152 32.1668C136.935 32.1472 136.699 32.2059 136.501 32.3039C136.363 32.3627 136.264 32.5194 136.264 32.6761C136.264 32.7153 136.264 32.7741 136.284 32.8132C136.304 32.872 136.343 32.9112 136.403 32.9308C136.481 32.9895 136.58 33.0287 136.679 33.0483C136.837 33.0483 137.014 33.0875 137.192 33.1267Z" fill="#282828"/>
<path d="M140.092 35.5361V29.7571H140.783V35.5361H140.092Z" fill="#282828"/>
<path d="M128.214 34.733C128.824 34.733 129.319 34.2331 129.319 33.6164C129.319 32.9997 128.824 32.4998 128.214 32.4998C127.604 32.4998 127.109 32.9997 127.109 33.6164C127.109 34.2331 127.604 34.733 128.214 34.733Z" fill="#282828"/>
<path d="M97.4924 32.7741C97.5121 32.8329 97.5121 32.8917 97.5121 32.9308C97.5121 32.97 97.5121 33.0092 97.5121 33.0484V35.5363H96.8215V33.2051C96.8215 33.1072 96.8018 32.9896 96.8018 32.8917C96.7821 32.7545 96.7426 32.637 96.6834 32.5195C96.6045 32.4019 96.5058 32.304 96.3874 32.2256C96.2296 32.1277 96.052 32.0885 95.8744 32.1081C95.6574 32.1081 95.4403 32.1472 95.243 32.2256C94.9865 32.3431 94.7892 32.5782 94.73 32.8525C94.7103 32.9504 94.6906 33.0288 94.6708 33.1267V35.5559H93.9802V29.7769H94.6708V31.9513C94.6906 31.9122 94.7103 31.8926 94.7498 31.873C94.8287 31.8142 94.8879 31.7554 94.9865 31.6967C95.1049 31.6183 95.2233 31.5595 95.3614 31.5204C95.539 31.4616 95.7166 31.442 95.8942 31.442C96.1507 31.442 96.4072 31.4812 96.644 31.5791C96.8215 31.6575 96.9794 31.775 97.1175 31.9122C97.2359 32.0297 97.3346 32.1864 97.3937 32.3431C97.4135 32.4803 97.4529 32.6174 97.4924 32.7741Z" fill="#282828"/>
<path d="M101.222 35.693C100.945 35.693 100.649 35.6342 100.393 35.5363C100.136 35.4383 99.9194 35.2816 99.7221 35.0857C99.5248 34.8898 99.3867 34.6547 99.2683 34.4196C99.1499 34.165 99.0907 33.8711 99.0907 33.5969C99.0907 33.3226 99.1499 33.0288 99.2683 32.7741C99.3669 32.5194 99.5248 32.2843 99.7221 32.108C99.9194 31.9121 100.136 31.7554 100.393 31.6575C100.926 31.442 101.518 31.442 102.031 31.6575C102.287 31.775 102.504 31.9121 102.702 32.108C102.899 32.3039 103.037 32.539 103.155 32.7741C103.274 33.0288 103.333 33.3226 103.313 33.5969C103.313 33.8907 103.254 34.165 103.155 34.4196C103.057 34.6743 102.899 34.8898 102.702 35.0857C102.504 35.2816 102.287 35.4383 102.031 35.5363C101.774 35.6342 101.498 35.693 101.222 35.693ZM101.222 32.1276C101.024 32.1276 100.847 32.1668 100.669 32.2452C100.492 32.3235 100.354 32.4215 100.215 32.5586C100.097 32.6957 99.9786 32.8525 99.9194 33.0288C99.7024 33.5577 99.8208 34.1846 100.215 34.596C100.334 34.7331 100.492 34.831 100.669 34.9094C100.847 34.9878 101.024 35.0269 101.222 35.0269C101.419 35.0269 101.597 34.9878 101.774 34.9094C101.932 34.831 102.09 34.7331 102.228 34.596C102.366 34.4588 102.465 34.3021 102.524 34.1454C102.662 33.7928 102.662 33.3814 102.524 33.0288C102.445 32.8525 102.346 32.6957 102.228 32.5586C102.11 32.4215 101.952 32.3235 101.774 32.2452C101.597 32.1668 101.399 32.1276 101.222 32.1276Z" fill="#282828"/>
<path d="M106.49 33.1266C106.628 33.1658 106.806 33.205 107.003 33.2441C107.2 33.2833 107.378 33.3617 107.555 33.4596C107.733 33.5576 107.871 33.6947 107.99 33.8514C108.108 34.0277 108.187 34.2432 108.167 34.4587C108.187 34.8113 108.009 35.164 107.713 35.3599C107.338 35.5949 106.885 35.7125 106.431 35.6929C106.253 35.6929 106.056 35.6733 105.878 35.6341C105.72 35.5949 105.563 35.5362 105.405 35.4578C105.267 35.3795 105.148 35.3011 105.03 35.1836C104.931 35.0856 104.832 34.9681 104.793 34.8505L105.405 34.635C105.503 34.7526 105.641 34.8505 105.799 34.9093C105.997 34.9877 106.214 35.0268 106.431 35.0268C106.51 35.0268 106.608 35.0268 106.727 35.0072C106.845 34.9877 106.944 34.9681 107.062 34.9289C107.161 34.8897 107.259 34.8309 107.338 34.7722C107.417 34.6938 107.457 34.5959 107.457 34.4783C107.457 34.4195 107.457 34.3608 107.437 34.3216C107.417 34.2628 107.378 34.2041 107.319 34.1649C107.22 34.0865 107.121 34.0473 107.003 34.0082C106.806 33.9298 106.608 33.8906 106.391 33.8514C106.214 33.8123 106.036 33.7731 105.839 33.7339C105.661 33.6947 105.503 33.6359 105.346 33.538C105.207 33.4596 105.089 33.3421 104.99 33.205C104.892 33.0482 104.852 32.8719 104.852 32.6956C104.852 32.3626 104.99 32.0492 105.267 31.8337C105.582 31.5986 105.997 31.4811 106.391 31.5006C106.569 31.5006 106.746 31.5202 106.924 31.5594C107.082 31.5986 107.24 31.6574 107.398 31.7357C107.536 31.8141 107.654 31.8924 107.772 31.9904C107.871 32.0883 107.95 32.1863 108.009 32.3038L107.398 32.5193C107.319 32.4018 107.2 32.3038 107.042 32.2451C106.865 32.1667 106.668 32.1471 106.47 32.1471C106.253 32.1275 106.016 32.1863 105.819 32.2842C105.681 32.343 105.582 32.4997 105.582 32.6564C105.582 32.6956 105.582 32.7544 105.602 32.7936C105.622 32.8523 105.661 32.8915 105.72 32.9111C105.799 32.9699 105.898 33.0091 105.997 33.0287C106.135 33.0483 106.312 33.107 106.49 33.1266Z" fill="#282828"/>
<path d="M111.817 35.6147L111.679 35.6538C111.6 35.6734 111.502 35.693 111.423 35.693C111.304 35.693 111.186 35.693 111.068 35.6734C110.93 35.6538 110.811 35.5951 110.693 35.5167C110.338 35.262 110.14 34.8115 110.14 34.1258V32.2844H109.647V31.5987H110.14V29.7769H110.811V31.5987H111.6V32.2844H110.791V34.1258C110.791 34.5568 110.87 34.8311 111.028 34.9486C111.068 34.9878 111.127 35.0074 111.186 35.0074C111.245 35.0074 111.285 35.0074 111.344 35.0074C111.403 35.0074 111.462 34.9878 111.521 34.9682L111.817 35.6147Z" fill="#282828"/>
<path d="M114.106 30.4623C114.106 30.5798 114.067 30.6974 113.968 30.7953C113.889 30.8737 113.771 30.9324 113.652 30.9324C113.534 30.9324 113.416 30.8933 113.337 30.7953C113.258 30.717 113.199 30.5994 113.199 30.4623C113.199 30.3447 113.238 30.2272 113.337 30.1488C113.416 30.0705 113.534 30.0117 113.652 30.0117C113.771 30.0117 113.889 30.0509 113.968 30.1488C114.067 30.2272 114.106 30.3447 114.106 30.4623ZM114.008 35.5361H113.317V31.5789H114.008V35.5361Z" fill="#282828"/>
<path d="M119.513 32.7741C119.513 32.8328 119.532 32.8916 119.532 32.9308C119.532 32.97 119.532 33.0091 119.532 33.0483V35.5167H118.842V33.1855C118.842 33.0875 118.822 32.97 118.822 32.872C118.802 32.7349 118.763 32.6173 118.704 32.4998C118.625 32.3823 118.526 32.2843 118.408 32.206C118.25 32.108 118.072 32.0688 117.875 32.0884C117.658 32.0884 117.441 32.1276 117.244 32.206C117.105 32.2647 116.987 32.3627 116.888 32.4998C116.809 32.5978 116.75 32.7153 116.731 32.8328C116.711 32.9112 116.691 33.0091 116.671 33.1071V35.5363H115.981V31.5791H116.671V31.9317C116.711 31.9121 116.731 31.8729 116.75 31.8533C116.809 31.7946 116.888 31.7358 116.987 31.677C117.105 31.6183 117.224 31.5595 117.362 31.5007C117.52 31.442 117.697 31.4224 117.875 31.4224C118.131 31.4224 118.388 31.4615 118.625 31.5595C118.802 31.6379 118.98 31.7554 119.098 31.8925C119.217 32.0101 119.315 32.1668 119.375 32.3235C119.434 32.4802 119.473 32.6369 119.513 32.7741Z" fill="#282828"/>
<path d="M125.156 31.5986V35.3403C125.156 35.6537 125.116 35.9671 125.018 36.2806C124.939 36.5352 124.801 36.7899 124.623 36.9858C124.445 37.1817 124.248 37.3384 124.011 37.456C123.755 37.5735 123.479 37.6323 123.222 37.6127C122.946 37.6127 122.67 37.5539 122.433 37.4364C122.236 37.3188 122.038 37.1817 121.88 37.025C121.762 36.9075 121.644 36.7507 121.565 36.594L121.446 36.3785L122.058 36.1043L122.137 36.2414C122.196 36.3393 122.275 36.4373 122.354 36.5157C122.453 36.6332 122.571 36.7311 122.709 36.7899C122.867 36.8683 123.045 36.9075 123.222 36.9075C123.617 36.927 123.992 36.7311 124.209 36.3981C124.307 36.2414 124.386 36.0651 124.426 35.8888C124.465 35.6929 124.485 35.5166 124.485 35.3207V35.066C124.307 35.2619 124.09 35.399 123.873 35.5166C123.38 35.7321 122.827 35.7321 122.354 35.5166C122.117 35.399 121.9 35.2619 121.742 35.066C121.565 34.8701 121.427 34.635 121.328 34.3999C121.131 33.871 121.131 33.2637 121.328 32.7348C121.427 32.4801 121.565 32.2646 121.742 32.0687C121.92 31.8728 122.137 31.7161 122.354 31.6182C122.847 31.4027 123.4 31.4027 123.873 31.6182C124.11 31.7357 124.327 31.8728 124.485 32.0687V31.5986H125.156ZM123.143 35.0072C123.321 35.0072 123.498 34.968 123.656 34.8897C123.814 34.8113 123.952 34.7134 124.071 34.5762C124.189 34.4391 124.288 34.2824 124.367 34.1061C124.505 33.7535 124.505 33.3421 124.367 32.9895C124.307 32.8131 124.209 32.6564 124.071 32.5193C123.952 32.3822 123.814 32.2842 123.656 32.2059C123.341 32.0491 122.966 32.0491 122.63 32.2059C122.472 32.2842 122.334 32.3822 122.216 32.5193C122.097 32.6564 121.999 32.8131 121.94 32.9895C121.801 33.3421 121.801 33.7535 121.94 34.1061C121.999 34.2824 122.097 34.4391 122.216 34.5762C122.334 34.7134 122.472 34.8113 122.63 34.8897C122.788 34.968 122.966 35.0072 123.143 35.0072Z" fill="#282828"/>
<path d="M90.6654 34.733C91.2756 34.733 91.7703 34.2331 91.7703 33.6164C91.7703 32.9997 91.2756 32.4998 90.6654 32.4998C90.0551 32.4998 89.5604 32.9997 89.5604 33.6164C89.5604 34.2331 90.0551 34.733 90.6654 34.733Z" fill="#282828"/>
<path d="M55.6423 29.7571V35.5361H54.9517V35.0856C54.7741 35.2815 54.5571 35.4186 54.34 35.5361C54.1033 35.6341 53.8468 35.6928 53.5705 35.6928C53.314 35.6928 53.0378 35.6341 52.801 35.5361C52.5642 35.4186 52.3472 35.2815 52.1893 35.0856C51.8144 34.6742 51.6171 34.1452 51.6171 33.5771C51.6171 33.2833 51.6763 33.009 51.775 32.7348C51.8736 32.4801 52.0118 32.2646 52.1893 32.0687C52.3669 31.8728 52.584 31.7161 52.801 31.6181C53.2746 31.4026 53.8468 31.4026 54.3203 31.6181C54.5571 31.7357 54.7741 31.8728 54.932 32.0687V29.7767H55.6423V29.7571ZM53.6297 35.0072C53.8073 35.0072 53.9849 34.968 54.1427 34.8897C54.3006 34.8113 54.4387 34.7133 54.5571 34.5762C54.6755 34.4391 54.7741 34.2824 54.8531 34.1256C54.9912 33.773 54.9912 33.3616 54.8531 33.009C54.7939 32.8327 54.6952 32.676 54.5571 32.5389C54.4387 32.4017 54.3006 32.3038 54.1427 32.2254C53.827 32.0687 53.4521 32.0687 53.1167 32.2254C52.9589 32.3038 52.8207 32.4017 52.7023 32.5389C52.584 32.676 52.4853 32.8327 52.4261 33.009C52.288 33.3616 52.288 33.773 52.4261 34.1256C52.4853 34.302 52.584 34.4587 52.7023 34.5762C52.8207 34.7133 52.9589 34.8113 53.1167 34.8897C53.2746 34.968 53.4521 35.0072 53.6297 35.0072Z" fill="#282828"/>
<path d="M59.411 35.6929C59.1348 35.6929 58.8388 35.6341 58.5823 35.5361C58.3258 35.4382 58.1087 35.2815 57.9114 35.0856C57.7141 34.8897 57.5562 34.6546 57.4576 34.4195C57.2405 33.8906 57.2405 33.2833 57.4576 32.7544C57.5562 32.4997 57.7141 32.2646 57.9114 32.0883C58.1087 31.8924 58.3258 31.7357 58.5823 31.6377C59.115 31.4027 59.707 31.4027 60.22 31.6377C60.4765 31.7553 60.6935 31.8924 60.8908 32.0883C61.0882 32.2842 61.246 32.5193 61.3447 32.7544C61.5617 33.2833 61.5617 33.8906 61.3447 34.4195C61.246 34.6742 61.0882 34.9093 60.8908 35.0856C60.6935 35.2815 60.4765 35.4382 60.22 35.5361C59.9635 35.6341 59.6872 35.6929 59.411 35.6929ZM59.411 32.1275C59.2137 32.1275 59.0361 32.1667 58.8585 32.245C58.6809 32.3234 58.5428 32.4213 58.4047 32.5585C58.2863 32.6956 58.1679 32.8523 58.1087 33.0286C57.8917 33.5576 58.0101 34.1844 58.4047 34.6154C58.5231 34.7525 58.6809 34.8505 58.8585 34.9289C59.0361 35.0072 59.2137 35.0464 59.411 35.0464C59.6083 35.0464 59.7859 35.0072 59.9635 34.9289C60.2989 34.7917 60.5751 34.5175 60.7133 34.1648C60.8514 33.8122 60.8514 33.4008 60.7133 33.0482C60.6343 32.8719 60.5357 32.7152 60.4173 32.5781C60.2989 32.4409 60.141 32.343 59.9635 32.2646C59.7859 32.1667 59.5886 32.1275 59.411 32.1275Z" fill="#282828"/>
<path d="M66.9089 31.442C67.1654 31.4224 67.4219 31.4615 67.639 31.5595C67.7376 31.5987 67.8363 31.6574 67.9152 31.7358C68.0139 31.8142 68.0928 31.8925 68.152 32.0101C68.2309 32.1276 68.2901 32.2647 68.3296 32.4019C68.369 32.5782 68.3888 32.7545 68.3888 32.9504V35.5559H67.6982V32.9112C67.6982 32.7545 67.6784 32.5978 67.6192 32.4606C67.5798 32.3627 67.5008 32.2843 67.4219 32.2256C67.343 32.1864 67.2641 32.1472 67.1654 32.1276C67.0865 32.108 67.0076 32.108 66.9286 32.108C66.7116 32.108 66.5143 32.1864 66.3762 32.3431C66.2183 32.4998 66.1394 32.6957 66.1394 32.9112V35.5363H65.4488V32.9112C65.4488 32.7545 65.429 32.5978 65.3699 32.4606C65.3304 32.3627 65.2515 32.2843 65.1725 32.2256C65.0936 32.1864 65.0147 32.1472 64.916 32.1276C64.8371 32.108 64.7582 32.108 64.6793 32.108C64.4622 32.108 64.2649 32.1864 64.1268 32.3431C63.9887 32.4998 63.89 32.6957 63.9097 32.9112V35.5363H63.1994V31.5791H63.9097V31.8925C63.9887 31.775 64.0676 31.677 64.186 31.6183C64.2452 31.5791 64.3044 31.5399 64.3636 31.5203C64.4228 31.4811 64.4819 31.4615 64.5411 31.4615C64.6003 31.442 64.6398 31.442 64.699 31.442C64.8568 31.4224 65.0147 31.442 65.1528 31.4615C65.2909 31.5007 65.429 31.5399 65.5474 31.6183C65.7053 31.6966 65.8237 31.8142 65.9223 31.9709C65.9421 31.9905 65.9421 31.9905 65.9421 32.0101C65.9421 32.0297 65.9618 32.0492 65.9618 32.0492C66.021 31.9709 66.0802 31.8925 66.1591 31.8142C66.238 31.7358 66.317 31.677 66.3959 31.6183C66.4748 31.5791 66.5735 31.5399 66.6721 31.5007C66.7313 31.4615 66.83 31.442 66.9089 31.442Z" fill="#282828"/>
<path d="M74.0122 31.579V35.5362H73.3018V35.066C73.1242 35.2619 72.9269 35.3991 72.6902 35.5166C72.1969 35.7321 71.6444 35.7321 71.1709 35.5166C70.9341 35.3991 70.717 35.2619 70.5592 35.066C70.3816 34.8701 70.2435 34.6351 70.1448 34.4C69.9278 33.8711 69.9278 33.2834 70.1448 32.7348C70.2435 32.4802 70.3816 32.2647 70.5592 32.0688C70.7368 31.8729 70.9538 31.7162 71.1709 31.6182C71.4076 31.5007 71.6641 31.4419 71.9404 31.4419C72.1969 31.4419 72.4534 31.5007 72.7099 31.5986C72.9467 31.6966 73.144 31.8533 73.3216 32.0492V31.579H74.0122ZM71.9798 35.0073C72.1574 35.0073 72.335 34.9681 72.4928 34.8897C72.6507 34.8114 72.7888 34.7134 72.9072 34.5763C73.0256 34.4392 73.1242 34.2824 73.1834 34.1257C73.3216 33.7731 73.3216 33.3617 73.1834 33.0091C73.1242 32.8328 73.0256 32.6761 72.9072 32.5585C72.7888 32.4214 72.6507 32.3234 72.4928 32.2451C72.1771 32.0884 71.8023 32.0884 71.4668 32.2451C71.309 32.3234 71.1709 32.4214 71.0525 32.5585C70.9341 32.6957 70.8354 32.8524 70.7565 33.0091C70.6184 33.3617 70.6184 33.7731 70.7565 34.1257C70.8157 34.302 70.9144 34.4392 71.0525 34.5763C71.1709 34.7134 71.309 34.8114 71.4668 34.8897C71.6444 34.9681 71.8023 35.0073 71.9798 35.0073Z" fill="#282828"/>
<path d="M76.7943 30.4623C76.7943 30.5798 76.7548 30.6974 76.6561 30.7953C76.5772 30.8737 76.4588 30.9324 76.3404 30.9324C76.222 30.9324 76.1036 30.8933 76.0247 30.7953C75.9458 30.717 75.8866 30.5994 75.8866 30.4623C75.8866 30.3447 75.9261 30.2272 76.0247 30.1488C76.1036 30.0705 76.222 30.0117 76.3404 30.0117C76.4588 30.0117 76.5772 30.0509 76.6561 30.1488C76.7351 30.2272 76.7943 30.3447 76.7943 30.4623ZM76.6759 35.5557H75.9853V31.5985H76.6759V35.5557Z" fill="#282828"/>
<path d="M82.2007 32.774C82.2007 32.8328 82.2204 32.8916 82.2204 32.9307C82.2204 32.9699 82.2204 33.0091 82.2204 33.0483V35.5362H81.5298V33.205C81.5298 33.107 81.5101 32.9895 81.5101 32.8916C81.4904 32.7544 81.4509 32.6369 81.3917 32.5193C81.3128 32.4018 81.2141 32.3039 81.0958 32.2255C80.9379 32.1275 80.7603 32.0884 80.5827 32.108C80.3657 32.108 80.1487 32.1471 79.9513 32.2255C79.8132 32.2843 79.6948 32.3822 79.5962 32.5193C79.5173 32.6173 79.4581 32.7348 79.4186 32.8524C79.3989 32.9307 79.3791 33.0287 79.3594 33.1266V35.5558H78.6688V31.5986H79.3594V31.9512C79.3989 31.9316 79.4186 31.8925 79.4383 31.8729C79.5173 31.8141 79.5765 31.7553 79.6751 31.6966C79.7935 31.6182 79.9119 31.579 80.05 31.5203C80.2079 31.4615 80.3854 31.4419 80.563 31.4419C80.8195 31.4419 81.076 31.4811 81.3128 31.579C81.4904 31.6574 81.668 31.7749 81.7863 31.9121C81.9047 32.0296 82.0034 32.1863 82.0626 32.343C82.1218 32.4802 82.1612 32.6369 82.2007 32.774Z" fill="#282828"/>
<path d="M85.6339 33.1267C85.772 33.1659 85.9496 33.205 86.1469 33.2442C86.3442 33.303 86.5218 33.3618 86.6994 33.4597C86.877 33.5577 87.0151 33.6948 87.1335 33.8515C87.2519 34.0278 87.3308 34.2433 87.3111 34.4588C87.3308 34.8114 87.1532 35.164 86.8572 35.3599C86.4823 35.595 86.0285 35.7126 85.5747 35.693C85.3971 35.693 85.1998 35.6734 85.0222 35.6342C84.8644 35.595 84.7065 35.5362 84.5487 35.4579C84.4106 35.3795 84.2922 35.3012 84.1738 35.1836C84.0751 35.0857 83.9765 34.9681 83.937 34.831L84.5487 34.6155C84.6473 34.7331 84.7855 34.831 84.9433 34.8898C85.1406 34.9681 85.3577 35.0073 85.5747 35.0073C85.6536 35.0073 85.7523 35.0073 85.8707 34.9877C85.9891 34.9681 86.0877 34.9485 86.2061 34.9094C86.3048 34.8702 86.4034 34.8114 86.4823 34.7526C86.5613 34.6743 86.6007 34.5763 86.6007 34.4588C86.6007 34.4 86.6007 34.3413 86.581 34.3021C86.5613 34.2433 86.5218 34.1845 86.4626 34.1454C86.364 34.067 86.2653 34.0278 86.1469 33.9886C85.9496 33.9103 85.7523 33.8711 85.5352 33.8319C85.3577 33.7927 85.1801 33.7536 84.9828 33.7144C84.8052 33.6752 84.6473 33.6164 84.4895 33.5185C84.3514 33.4401 84.233 33.3226 84.1343 33.1854C84.0357 33.0287 83.9962 32.8524 83.9962 32.6761C83.9962 32.3431 84.1343 32.0296 84.4106 31.8141C84.746 31.5791 85.1406 31.4615 85.5352 31.4811C85.7128 31.4811 85.8904 31.5007 86.068 31.5399C86.2258 31.5791 86.3837 31.6378 86.5415 31.7162C86.6797 31.7945 86.798 31.8729 86.9164 31.9905C87.0151 32.0884 87.094 32.2059 87.1532 32.3431L86.5415 32.5586C86.4626 32.441 86.3442 32.3431 86.1864 32.2843C86.0088 32.2059 85.8115 32.1864 85.6142 32.1864C85.3971 32.1668 85.1603 32.2255 84.963 32.3235C84.8249 32.3823 84.7263 32.539 84.7263 32.6957C84.7263 32.7349 84.7263 32.7936 84.746 32.8328C84.7657 32.8916 84.8052 32.9308 84.8644 32.9504C84.963 33.0091 85.042 33.0483 85.1406 33.0679C85.2787 33.0679 85.4563 33.1071 85.6339 33.1267Z" fill="#282828"/>
<path d="M56.0567 10.8333C57.1024 10.8333 58.1482 11.0292 59.115 11.4405C60.9895 12.2437 62.4891 13.7326 63.298 15.6132C64.1268 17.5526 64.1268 19.7467 63.298 21.6861C62.5088 23.5667 61.0092 25.0556 59.115 25.8588C58.1482 26.2702 57.1221 26.4856 56.0567 26.4661H51.5579V10.8333H56.0567ZM56.0567 24.4091C56.8262 24.4091 57.5957 24.2524 58.2863 23.9585C59.6675 23.3708 60.7527 22.2738 61.3446 20.8829C61.9366 19.4528 61.9366 17.8465 61.3446 16.4164C60.7724 15.0451 59.6675 13.9481 58.2863 13.3408C57.576 13.0273 56.8262 12.8706 56.0567 12.8902H53.6692V24.4091H56.0567Z" fill="#282828"/>
<path d="M79.1423 10.8333V26.4661H77.0508L69.178 14.6141V26.4661H67.0668V10.8333H69.1583L77.0113 22.6656V10.8333H79.1423Z" fill="#282828"/>
<path d="M95.4207 10.8333V26.4661H93.3094V19.6683H85.5353V26.4661H83.424V10.8333H85.5353V17.631H93.3094V10.8333H95.4207Z" fill="#282828"/>
<path d="M107.082 10.4218C108.187 10.4218 109.292 10.6373 110.298 11.0683C112.291 11.9106 113.869 13.4778 114.718 15.4368C115.586 17.4742 115.586 19.7858 114.718 21.8232C113.869 23.7822 112.291 25.3493 110.298 26.1917C108.226 27.0537 105.898 27.0537 103.846 26.1917C102.859 25.7803 101.971 25.173 101.222 24.4286C100.472 23.6842 99.88 22.7831 99.4459 21.8232C98.5777 19.7858 98.5777 17.4742 99.4459 15.4368C99.8602 14.4573 100.472 13.5758 101.222 12.8314C101.971 12.0869 102.859 11.4796 103.846 11.0683C104.872 10.6373 105.957 10.4022 107.082 10.4218ZM107.082 24.8008C107.911 24.8008 108.72 24.6441 109.469 24.3307C110.199 24.0172 110.851 23.5667 111.423 23.0181C111.975 22.45 112.429 21.784 112.745 21.0591C113.06 20.2951 113.238 19.4919 113.238 18.6496C113.238 17.8268 113.08 17.0236 112.745 16.2596C112.113 14.7904 110.949 13.615 109.489 12.9685C108.739 12.6355 107.911 12.4787 107.102 12.4787C106.273 12.4787 105.444 12.6355 104.694 12.9685C103.964 13.2819 103.293 13.7325 102.741 14.3006C102.189 14.8687 101.735 15.5348 101.419 16.2596C101.103 17.0236 100.926 17.8268 100.926 18.6496C100.926 19.4724 101.084 20.2951 101.419 21.0591C101.735 21.784 102.169 22.45 102.741 23.0181C103.293 23.5863 103.964 24.0368 104.694 24.3307C105.424 24.6441 106.253 24.8204 107.082 24.8008Z" fill="#282828"/>
<path d="M123.123 17.2392C124.09 17.4547 125.018 17.8073 125.906 18.2579C126.537 18.5909 127.089 19.0219 127.583 19.5509C127.958 19.9427 128.234 20.4128 128.411 20.9222C128.55 21.3531 128.628 21.7841 128.628 22.2347C128.628 22.8616 128.471 23.4884 128.175 24.037C127.879 24.6051 127.445 25.0948 126.951 25.5062C126.399 25.9372 125.787 26.2702 125.136 26.5053C124.426 26.76 123.656 26.8775 122.906 26.8775C122.196 26.8775 121.486 26.7796 120.815 26.5641C120.183 26.3682 119.592 26.0743 119.079 25.7021C118.585 25.3495 118.171 24.8989 117.835 24.3896C117.52 23.8998 117.303 23.3513 117.224 22.7636L119.098 22.3914C119.335 23.0966 119.809 23.7235 120.44 24.1153C121.17 24.6051 122.038 24.8401 122.926 24.8206C123.4 24.8206 123.873 24.7618 124.327 24.6247C124.741 24.5071 125.136 24.3112 125.491 24.0761C125.807 23.8606 126.063 23.5864 126.261 23.2534C126.438 22.9595 126.537 22.6069 126.537 22.2543C126.537 20.883 125.254 19.8839 122.67 19.2374C122.058 19.0807 121.427 18.924 120.795 18.7281C120.203 18.5518 119.631 18.2971 119.098 17.9641C118.605 17.6506 118.191 17.2392 117.855 16.7495C117.5 16.1814 117.342 15.5349 117.362 14.8688C117.362 14.2616 117.48 13.6543 117.737 13.1058C117.993 12.5572 118.348 12.0871 118.822 11.7149C119.315 11.3035 119.887 10.99 120.499 10.7941C121.209 10.5591 121.94 10.4415 122.689 10.4611C123.36 10.4415 124.031 10.5591 124.682 10.755C125.274 10.9509 125.807 11.2447 126.3 11.6169C126.754 11.9695 127.129 12.4201 127.425 12.9099C127.721 13.4192 127.898 13.9677 127.977 14.5554L126.103 14.9668C125.945 14.2616 125.55 13.6347 124.978 13.2037C124.386 12.7335 123.636 12.5181 122.689 12.5181C121.683 12.5181 120.894 12.7335 120.341 13.1841C119.809 13.5759 119.493 14.2224 119.493 14.8884C119.493 15.1431 119.532 15.3782 119.631 15.6133C119.749 15.8483 119.947 16.0638 120.164 16.201C120.499 16.4165 120.874 16.5928 121.269 16.7299C121.742 16.8474 122.354 17.0433 123.123 17.2392Z" fill="#282828"/>
<path d="M141 10.8333V12.8314H136.324V26.4856H134.212V12.8118H129.536V10.8333H141Z" fill="#282828"/>
<path d="M43.3102 21.5098C43.3102 33.3813 33.6222 43.0196 21.665 43.0196C9.70781 43.0196 0 33.3813 0 21.5098C0 9.63827 9.68808 0 21.665 0C33.6222 0 43.3102 9.61868 43.3102 21.5098Z" fill="#1EB6DB"/>
<path d="M40.2124 21.5099C40.2124 31.6966 31.9055 39.944 21.6452 39.944C11.3849 39.944 3.07806 31.6966 3.07806 21.5099C3.07806 11.3231 11.3849 3.07568 21.6452 3.07568C31.9055 3.07568 40.2124 11.3231 40.2124 21.5099Z" fill="#2E435E"/>
<path d="M24.8023 32.1275C24.5852 32.1275 24.3682 32.0687 24.1906 31.9512C23.5987 31.6181 23.4014 30.8541 23.7368 30.2664L39.068 4.13339C39.4035 3.54569 40.173 3.34979 40.7649 3.68282C41.3569 4.01585 41.5542 4.77986 41.2187 5.36756L25.8875 31.5202C25.6507 31.912 25.2364 32.1275 24.8023 32.1275Z" fill="white"/>
<path d="M16.1402 32.1275C15.9232 32.1275 15.7061 32.0687 15.5286 31.9512C14.9366 31.6181 14.7393 30.8541 15.0747 30.2664L26.1045 11.4601C26.44 10.8724 27.2095 10.6765 27.8014 11.0095C28.3934 11.3425 28.5907 12.1065 28.2553 12.6942L17.2255 31.5006C16.9887 31.912 16.5743 32.1275 16.1402 32.1275Z" fill="white"/>
<path d="M3.31485 39.2386C3.09781 39.2386 2.88076 39.1799 2.70318 39.0623C2.11124 38.7293 1.91393 37.9653 2.24936 37.3776L17.4425 11.4601C17.7779 10.8724 18.5474 10.6765 19.1394 11.0095C19.7313 11.3425 19.9286 12.1065 19.5932 12.6942L4.40007 38.6118C4.14357 39.0232 3.72921 39.2386 3.31485 39.2386Z" fill="white"/>
</g>
<defs>
<clipPath id="clip0">
<rect width="141" height="43" fill="white"/>
</clipPath>
</defs>
</svg>
