<?xml version="1.0" encoding="utf-8"?>
<!-- Generator: Adobe Illustrator 23.0.6, SVG Export Plug-In . SVG Version: 6.00 Build 0)  -->
<svg version="1.1" id="Layer_1" xmlns="http://www.w3.org/2000/svg" xmlns:xlink="http://www.w3.org/1999/xlink" x="0px" y="0px"
	 viewBox="0 0 1499 1482" style="enable-background:new 0 0 1499 1482;" xml:space="preserve">
<style type="text/css">
	.st0{display:none;}
	.st1{display:inline;}
	.st2{fill:none;}
	.st3{fill:#2d5886;}
</style>
<g class="st0">
	<g class="st1">
		<path d="M467,569.3c-1.3,0-2.4,0.9-2.8,2.2l-50.6,199.7l-5.9-21.9l-41-152.8l-6.7-25c-0.3-1.2-1.5-2.1-2.8-2.1h-38.1
			c-1.3,0-2.4,0.9-2.8,2.1l-53.7,199.8l-50.7-199.8c-0.3-1.3-1.5-2.2-2.8-2.2h-53.3c-0.9,0-1.7,0.4-2.3,1.1
			c-0.5,0.7-0.7,1.6-0.5,2.5l78,273.6c0.3,1.2,1.5,2.1,2.7,2.1H285c1.3,0,2.4-0.9,2.8-2.1l50.5-191.6l23.6,90.1l26.6,101.5
			c0.3,1.2,1.5,2.1,2.8,2.1h24.1h27.1c1.3,0,2.4-0.8,2.7-2.1L523.5,573c0.2-0.9,0.1-1.8-0.5-2.5c-0.5-0.7-1.4-1.1-2.3-1.1L467,569.3
			L467,569.3z"/>
		<path d="M934.2,570.5c-0.5-0.7-1.4-1.1-2.3-1.1h-53.7c-1.3,0-2.5,0.9-2.8,2.2l-50.6,199.7L772.3,576l-1.2-4.5
			c-0.3-1.2-1.5-2.1-2.8-2.1h-38.1c-1.3,0-2.4,0.9-2.7,2.1l-0.8,3l-52.9,196.8l-50.7-199.8c-0.3-1.3-1.5-2.2-2.8-2.2H567
			c-0.9,0-1.7,0.4-2.3,1.1c-0.5,0.7-0.7,1.6-0.5,2.5l78,273.6c0.3,1.2,1.4,2.1,2.7,2.1h51.3c1.3,0,2.4-0.9,2.8-2.1l27.7-105.1
			l22.8-86.5l22.8,87.3l27.3,104.3c0.3,1.2,1.5,2.1,2.8,2.1h51.2c1.3,0,2.4-0.8,2.7-2.1l5-17.6l11-38.3L934.6,573
			C934.9,572.1,934.8,571.2,934.2,570.5z"/>
		<path d="M1056.1,848.5h26.9h0.6h23.7c1.3,0,2.4-0.9,2.8-2.1l27-102.3l23.5-89.3l50.1,191.6c0.3,1.2,1.5,2.1,2.8,2.1h51.3
			c1.3,0,2.4-0.8,2.7-2.1l78.3-273.5c0.2-0.9,0.1-1.8-0.5-2.5c-0.5-0.7-1.4-1.1-2.3-1.1h-53.7c-1.3,0-2.4,0.9-2.8,2.2l-50.6,199.7
			l-53.6-199.7c-0.3-1.2-1.5-2.1-2.8-2.1h-38.1c-1.3,0-2.4,0.9-2.8,2.1l-6.4,23.7l-41,152.4l-6.4,23.7l-50.5-199.8
			c-0.3-1.3-1.5-2.2-2.8-2.2h-53.3c-0.9,0-1.7,0.4-2.3,1.1c-0.5,0.7-0.7,1.6-0.5,2.5l70.6,248l7.3,25.5
			C1053.7,847.7,1054.9,848.5,1056.1,848.5z"/>
	</g>
	<g class="st1">
		<path class="st2" d="M381.4,492H111.9H87.4c-12.6,0-22.8,10.2-22.8,22.8v388.1c0,12.6,10.2,22.8,22.8,22.8h24.5h269.5h45.9h299.3
			V492H427.3H381.4z"/>
		<path d="M487,1118.9c58.3,129.8,143.6,215.9,239.7,227.7V1107C644.3,1107.7,563.6,1111.7,487,1118.9z"/>
		<path d="M487.2,298.3c76.3,7.3,157,11.4,239.4,12V71.2C630.8,83,545.5,168.8,487.2,298.3z"/>
		<path d="M663.8,41C498.5,62,351.9,142.8,246.5,261.1c59.2,13.4,124.8,24.2,194.7,32.3C495.5,168.2,573.8,77,663.8,41z"/>
		<path d="M440.9,1123.7c-70,7.9-135.9,18.6-195.5,31.7c105.5,119,252.4,200.3,418.3,221.4C573.5,1340.8,495.2,1249.3,440.9,1123.7z
			"/>
		<path d="M726.7,925.8H427.3h-45.9H111.9H87.4c-12.6,0-22.8-10.2-22.8-22.8V514.9c0-12.6,10.2-22.8,22.8-22.8h24.5h269.5h45.9
			h299.3v-45.7v-90.3c-88.8-0.7-175.7-5.3-257.5-13.6c-12.3,32.6-22.9,67.3-31.8,104H391c9-38.2,20-74.6,32.6-109
			c-75.8-9.2-146.5-21.6-209.5-37c-34.1,44.6-62.9,93.6-85.1,146H87.3c-37.8,0-68.5,30.7-68.5,68.5v388.1
			c0,37.8,30.7,68.5,68.5,68.5H129c22,51.8,50.3,100.3,83.9,144.5c63.5-15.1,134.5-27.3,210.4-36.3c-12.5-34.1-23.4-70.3-32.4-108.3
			h46.3c8.8,36.4,19.4,70.9,31.5,103.3c82.1-8.2,169.1-12.8,257.8-13.4v-89.9v-45.7L726.7,925.8L726.7,925.8z"/>
	</g>
	<g class="st1">
		<path class="st2" d="M1114.4,492h269.5h24.5c12.6,0,22.8,10.2,22.8,22.8v388.1c0,12.6-10.2,22.8-22.8,22.8h-24.5h-269.5h-45.9
			H769.2V492h299.3H1114.4z"/>
		<path d="M1008.8,1118.9c-58.3,129.8-143.6,215.9-239.7,227.7V1107C851.5,1107.7,932.2,1111.7,1008.8,1118.9z"/>
		<path d="M1008.6,298.3c-76.3,7.3-157,11.4-239.4,12V71.2C865,83,950.3,168.8,1008.6,298.3z"/>
		<path d="M832,41c165.3,21,311.8,101.8,417.3,220.1c-59.2,13.4-124.8,24.2-194.7,32.3C1000.3,168.2,922,77,832,41z"/>
		<path d="M1054.9,1123.7c70,7.9,135.9,18.6,195.5,31.7c-105.5,119-252.4,200.3-418.3,221.4
			C922.3,1340.8,1000.6,1249.3,1054.9,1123.7z"/>
		<path d="M769.1,925.8h299.3h45.9h269.5h24.5c12.6,0,22.8-10.2,22.8-22.8V514.9c0-12.6-10.2-22.8-22.8-22.8h-24.5h-269.5h-45.8
			H769.1v-45.7v-90.3c88.8-0.7,175.7-5.3,257.5-13.6c12.3,32.6,22.9,67.3,31.8,104h46.3c-9-38.2-20-74.6-32.6-109
			c75.8-9.2,146.5-21.6,209.5-37c34.1,44.6,62.9,93.6,85.1,146h41.7c37.8,0,68.5,30.7,68.5,68.5v388.1c0,37.8-30.7,68.5-68.5,68.5
			h-41.7c-22,51.8-50.3,100.3-83.9,144.5c-63.5-15.1-134.5-27.3-210.4-36.3c12.5-34.1,23.4-70.3,32.4-108.3h-46.3
			c-8.8,36.4-19.4,70.9-31.5,103.3c-82.1-8.2-169.1-12.8-257.8-13.4v-89.9v-45.7L769.1,925.8L769.1,925.8z"/>
	</g>
</g>
<g id="Layer_4">
</g>
<g>
	<path class="st3" d="M773,717.5h327.8c-1.9-122.4-18.6-239.5-48.4-343c-86.6,22-181.1,35.5-279.4,39.7V717.5z"/>
	<path class="st3" d="M588.4,32.1C603.2,19.6,618.3,8.9,633.6,0C451.7,28.2,291.4,121.8,177.5,256c3.4,1.7,6.8,3.5,10.2,5.2
		c64.7,32.4,139.6,57.9,221,76c15.3-49.1,33.6-95,54.6-137C499.2,128.5,541.3,71.9,588.4,32.1z"/>
	<path class="st3" d="M865.4,0c15.4,8.9,30.5,19.6,45.2,32.1c47.1,39.8,89.2,96.4,125,168.1c18.1,36.2,34.2,75.4,48.1,116.9
		c51.7-15.4,99.9-34.1,143.5-55.9c23.7-11.8,45.5-24.3,65.3-37.4C1181.1,106.9,1032.4,25.9,865.4,0z"/>
	<path class="st3" d="M588.4,1449.9c-47.1-39.8-89.2-96.4-125-168.1c-13.2-26.5-25.4-54.5-36.4-83.9
		c-72.2,17.6-138.8,41.3-197.2,70.5c-3,1.5-5.9,3-8.9,4.5c109.7,109,252.9,184.3,412.7,209.1
		C618.3,1473.1,603.2,1462.4,588.4,1449.9z"/>
	<path class="st3" d="M773,1114.2c93.5,1.4,184.1,11.2,268.5,28.7c36.6-111.9,57.1-241.8,59.2-378.4H773V1114.2z"/>
	<path class="st3" d="M726,415.4c-6.2,0.1-12.3,0.1-18.5,0.1c-92.1,0-181.7-8.1-265.7-23.7C415,491,400,601.9,398.2,717.5H726V415.4
		z"/>
	<path class="st3" d="M1072,1197.9c-11,29.4-23.1,57.4-36.4,83.9c-35.9,71.7-77.9,128.3-125,168.1c-14.8,12.5-29.9,23.2-45.2,32.1
		c159.9-24.8,303.1-100.1,412.7-209.1c-2.9-1.5-5.9-3-8.9-4.5C1210.9,1239.2,1144.3,1215.5,1072,1197.9z"/>
	<path class="st3" d="M1038.4,329.6c-13-38.5-28-74.8-44.8-108.4C932.8,99.5,855.2,27.8,773,16.2v350.9
		C866.4,363.1,956.2,350.3,1038.4,329.6z"/>
	<path class="st3" d="M726,368.4V16.2c-82.2,11.5-159.8,83.3-220.6,205c-19.2,38.4-36,80.5-50.3,125.3c79.7,14.5,164.9,22,252.4,22
		C713.7,368.6,719.8,368.5,726,368.4z"/>
	<path class="st3" d="M726,764.5H398.2c2.1,136.6,22.7,266.5,59.2,378.4c84.4-17.5,175.1-27.3,268.5-28.7L726,764.5L726,764.5z"/>
	<path class="st3" d="M473.3,1187.6c9.8,25.6,20.5,50,32.1,73.2c60.9,121.7,138.4,193.5,220.6,205v-304.6
		C638,1162.6,552.8,1171.6,473.3,1187.6z"/>
	<path class="st3" d="M395.7,382.4c-84.2-18.9-161.7-45.5-229-79.1c-6.4-3.2-12.8-6.5-19-9.8C59.1,412.5,4.9,558.8,0,717.5h351.3
		C353,598.9,368.3,484.9,395.7,382.4z"/>
	<path class="st3" d="M773,1465.8c82.2-11.5,159.8-83.3,220.6-205c11.6-23.1,22.3-47.6,32.1-73.2c-79.4-16-164.7-25-252.7-26.4
		L773,1465.8L773,1465.8z"/>
	<path class="st3" d="M1087.5,1153.4c74.1,18.3,142.5,42.8,202.7,73c7.3,3.6,14.4,7.3,21.3,11.1c112-126.8,181.9-291.8,187.4-472.9
		h-351.3C1145.6,904.2,1124.8,1037.7,1087.5,1153.4z"/>
	<path class="st3" d="M1097.7,362c30.9,107.7,48.2,229,50.1,355.5H1499c-5.4-174.3-70.2-333.6-174.9-458.3
		c-23,15.6-48.3,30.3-75.9,44.1C1202.4,326.2,1151.8,345.8,1097.7,362z"/>
	<path class="st3" d="M411.5,1153.4c-37.3-115.7-58.1-249.1-60.2-388.9H0c5.6,181.2,75.4,346.1,187.4,472.9
		c7-3.8,14.1-7.5,21.3-11.1C269,1196.2,337.4,1171.7,411.5,1153.4z"/>
</g>
</svg>
