<?xml version="1.0" encoding="utf-8"?>
<!-- Generator: Adobe Illustrator 23.0.6, SVG Export Plug-In . SVG Version: 6.00 Build 0)  -->
<svg version="1.1" id="Layer_1" xmlns="http://www.w3.org/2000/svg" xmlns:xlink="http://www.w3.org/1999/xlink" x="0px" y="0px"
	 viewBox="0 0 49 42" style="enable-background:new 0 0 49 42;" xml:space="preserve">
<style type="text/css">
	.st0{fill:#2d5886;}
</style>
<path class="st0" d="M46.5,18.3c-0.1-0.1-0.1-0.2-0.2-0.4c-0.1-0.2-0.2-0.5-0.4-0.7c-0.3-0.5-0.6-0.9-0.9-1.3
	c-0.1-0.1-0.2-0.2-0.2-0.3c-0.4-0.5-0.8-1-1.3-1.5c-0.3-0.3-0.6-0.6-0.9-0.8c-0.3-0.3-0.6-0.5-0.9-0.8c-0.2-0.2-0.4-0.3-0.6-0.5
	c-0.1-0.1-0.2-0.2-0.3-0.2c-0.3-0.2-0.7-0.4-1-0.6c-0.2-0.1-0.5-0.3-0.7-0.4c-0.3-0.2-0.7-0.3-1.1-0.5C36,9.4,33.9,9,31.6,9
	c0,0,0,0-0.1,0c-5.8,0-10.9,3-13.8,7.5c-0.3,0.5-0.6,1-0.8,1.4c-0.9,1.8-1.5,3.9-1.8,6c-0.1,0.5-0.1,1-0.1,1.5
	c0,0.9,0.1,1.7,0.2,2.5c0.1,0.4,0.1,0.8,0.2,1.2c0.1,0.4,0.2,0.8,0.3,1.2c0,0.1,0.1,0.3,0.1,0.4c0.1,0.3,0.2,0.5,0.3,0.8
	c0.2,0.6,0.5,1.2,0.9,1.8c0.1,0.2,0.3,0.5,0.4,0.7c0.1,0.1,0.1,0.2,0.2,0.3c0.1,0.2,0.3,0.4,0.5,0.7c0.1,0.1,0.2,0.2,0.2,0.3
	c0.4,0.5,0.8,1,1.3,1.5c0.5,0.6,1.1,1.1,1.8,1.6c0.3,0.2,0.6,0.5,1,0.7c0.2,0.2,0.4,0.3,0.7,0.4c0.2,0.1,0.5,0.3,0.7,0.4
	c0.3,0.2,0.7,0.4,1.1,0.5c2.1,0.9,4.4,1.5,6.8,1.5c2.3,0,4.5-0.5,6.4-1.3c0.2-0.1,0.4-0.2,0.5-0.2c0.3-0.1,0.6-0.3,0.9-0.5
	c0.2-0.1,0.4-0.2,0.6-0.3c0.3-0.2,0.5-0.3,0.8-0.5c0.3-0.2,0.6-0.5,1-0.7c0.3-0.2,0.6-0.5,0.9-0.8c0.3-0.3,0.6-0.5,0.9-0.8
	c0.5-0.5,0.9-1,1.3-1.5c0.1-0.1,0.2-0.2,0.2-0.3c0.3-0.4,0.5-0.8,0.8-1.2c0.1-0.1,0.1-0.2,0.1-0.3c0.1-0.2,0.2-0.4,0.3-0.6
	c0.1-0.1,0.1-0.2,0.2-0.4c1-2.2,1.6-4.6,1.6-7.2C48.1,22.9,47.5,20.5,46.5,18.3z M36.9,29.9c0,0.1-0.1,0.2-0.1,0.3
	c-0.1,0.2-0.2,0.3-0.3,0.5c0,0.1-0.1,0.1-0.1,0.2c-0.1,0.1-0.2,0.2-0.2,0.3c-0.1,0.1-0.3,0.3-0.4,0.4c-0.1,0-0.1,0.1-0.2,0.1
	c-0.1,0.1-0.2,0.2-0.3,0.2c-0.1,0.1-0.2,0.2-0.3,0.2c-0.3,0.2-0.6,0.3-0.9,0.4c-0.3,0.1-0.6,0.2-1,0.3c0,0-0.1,0-0.1,0
	c0,0-0.1,0-0.1,0c-0.1,0-0.1,0.1-0.1,0.1v1.1c0,0.7-0.6,1.2-1.4,1.2h0c-0.7,0-1.4-0.5-1.4-1.2v-0.9c0,0,0,0,0,0c0,0,0-0.1-0.1-0.1
	c-0.1,0-0.1-0.1-0.2-0.1c-0.1,0-0.3,0-0.4,0c-0.3,0-0.5-0.1-0.8-0.1c-0.6-0.1-1.2-0.3-1.7-0.5c-0.1-0.1-0.2-0.1-0.3-0.2
	c0,0-0.1-0.1-0.1-0.1c-0.1-0.1-0.2-0.2-0.2-0.3c0,0,0-0.1-0.1-0.1c0,0,0-0.1,0-0.1c0-0.1-0.1-0.2-0.1-0.3c0,0,0-0.1,0-0.1
	s0-0.1,0-0.1c0-0.1,0-0.1,0.1-0.2l0.1-0.2c0-0.1,0.1-0.1,0.1-0.2c0,0,0,0,0,0c0-0.1,0.1-0.1,0.1-0.1c0,0,0.1-0.1,0.1-0.1
	c0,0,0,0,0,0c0.1,0,0.1-0.1,0.1-0.1s0.1-0.1,0.2-0.1c0,0,0,0,0,0c0.1,0,0.1,0,0.2-0.1c0.1,0,0.1,0,0.2,0c0,0,0,0,0.1,0
	c0.1,0,0.1,0,0.2,0c0,0,0,0,0,0c0,0,0.1,0,0.1,0c0,0,0,0,0.1,0c0,0,0.1,0,0.1,0c0,0,0,0,0.1,0s0.1,0,0.1,0c0,0,0,0,0.1,0
	c0,0,0.1,0,0.1,0h0c0.6,0.3,1.7,0.6,2.9,0.6c0.9,0,1.6-0.2,2.1-0.6c0.1-0.1,0.1-0.1,0.2-0.2c0.1-0.1,0.2-0.3,0.3-0.5
	c0.1-0.2,0.1-0.3,0.1-0.5c0,0,0,0,0-0.1c0,0,0-0.1,0-0.1c0-0.1,0-0.1,0-0.2c0,0,0-0.1,0-0.1c0-0.1,0-0.1-0.1-0.1c0,0,0-0.1,0-0.1
	c0-0.1-0.1-0.1-0.1-0.1c0-0.1-0.1-0.1-0.1-0.1c0-0.1-0.1-0.1-0.1-0.1c-0.1-0.1-0.1-0.1-0.2-0.1c-0.1-0.1-0.1-0.1-0.2-0.1
	c-0.1-0.1-0.2-0.1-0.4-0.2c-0.1,0-0.1-0.1-0.1-0.1c-0.1-0.1-0.2-0.1-0.3-0.2c-0.1,0-0.1-0.1-0.2-0.1c-0.1-0.1-0.2-0.1-0.4-0.2
	c-0.1,0-0.1-0.1-0.2-0.1c-0.1,0-0.1-0.1-0.2-0.1c-0.5-0.2-1.1-0.4-1.6-0.6c-0.3-0.1-0.6-0.3-0.9-0.4c-0.1-0.1-0.3-0.1-0.4-0.2
	c-0.1-0.1-0.2-0.2-0.4-0.2c-0.1-0.1-0.2-0.2-0.3-0.3c-0.1-0.1-0.2-0.2-0.3-0.3c-0.1-0.1-0.2-0.2-0.3-0.3c-0.1-0.1-0.2-0.2-0.2-0.3
	c-0.2-0.3-0.3-0.6-0.4-1c-0.1-0.3-0.1-0.5-0.1-0.8c0-2,1.5-3.5,3.9-4.1c0,0,0,0,0.1,0c0.1,0,0.1,0,0.1-0.1c0,0,0,0,0,0
	c0,0,0,0,0-0.1v0v-1c0-0.1,0-0.2,0.1-0.4c0-0.1,0.1-0.2,0.1-0.2c0.2-0.4,0.6-0.6,1.1-0.6c0,0,0.1,0,0.1,0c0.5,0,1,0.3,1.2,0.6
	c0,0.1,0.1,0.1,0.1,0.2c0,0.1,0.1,0.2,0.1,0.4v0.9c0,0,0,0.1,0.1,0.1c0.1,0.1,0.1,0.1,0.2,0.1c0.4,0,0.8,0.1,1.1,0.2
	c0.4,0.1,0.7,0.2,1,0.3c0.2,0.1,0.3,0.2,0.5,0.3c0.1,0.1,0.1,0.1,0.2,0.2c0,0,0.1,0.1,0.1,0.1c0,0,0,0.1,0.1,0.1
	c0.1,0.1,0.1,0.3,0.1,0.5c0,0.2,0,0.3-0.1,0.5l-0.1,0.2c0,0.1-0.1,0.1-0.1,0.2c0,0,0,0,0,0c0,0.1-0.1,0.1-0.1,0.1
	c0,0-0.1,0.1-0.1,0.1c0,0,0,0,0,0c-0.1,0-0.1,0.1-0.1,0.1h0c-0.1,0-0.1,0.1-0.1,0.1c0,0,0,0,0,0c-0.1,0-0.1,0-0.2,0.1h0
	c-0.1,0-0.1,0-0.2,0c0,0,0,0,0,0c-0.1,0-0.1,0-0.2,0c0,0-0.1,0-0.1,0c0,0,0,0-0.1,0c0,0-0.1,0-0.1,0c0,0,0,0-0.1,0c0,0-0.1,0-0.1,0
	c0,0,0,0-0.1,0c0,0-0.1,0-0.1,0c-0.7-0.3-1.6-0.4-2.5-0.4c-0.1,0-0.3,0-0.4,0c-1.4,0.1-1.9,0.8-1.9,1.4c0,0,0,0.1,0,0.1
	c0,0.4,0.3,0.8,0.9,1.1c0.1,0,0.2,0.1,0.2,0.1c0.1,0.1,0.3,0.1,0.4,0.2c0.1,0.1,0.3,0.1,0.5,0.2c0.1,0.1,0.2,0.1,0.4,0.1
	c0.2,0.1,0.4,0.1,0.6,0.2c0.1,0.1,0.3,0.1,0.4,0.2c0.1,0.1,0.3,0.1,0.4,0.2c0.1,0,0.1,0.1,0.2,0.1c0.2,0.1,0.4,0.2,0.6,0.3
	c0.1,0,0.1,0.1,0.2,0.1c0.1,0.1,0.3,0.1,0.4,0.2C34.9,25,35,25,35,25c0.1,0.1,0.2,0.2,0.4,0.2c1,0.7,1.8,1.8,1.8,3.3
	C37.1,29,37,29.5,36.9,29.9z"/>
<path class="st0" d="M16,15.4c1.1-1.7,2.4-3.2,3.9-4.4C19,11,18.2,11,17.3,11C9.8,11,3.5,9.9,1.2,8.4c-0.4-0.3-0.9,0-0.9,0.5v4.2
	c0,2,6.4,3.7,14.8,4c0,0,0,0,0,0C15.3,16.4,15.6,15.9,16,15.4z"/>
<path class="st0" d="M13,23.8c0.1-1.3,0.3-2.5,0.7-3.7c-5.9-0.3-10.6-1.3-12.6-2.6c-0.4-0.3-0.9,0-0.9,0.5v4.2
	c0,1.8,5.4,3.4,12.7,3.9c0-0.2,0-0.4,0-0.6C13,24.9,13,24.4,13,23.8z"/>
<path class="st0" d="M14.2,32.3c-0.1-0.3-0.2-0.6-0.3-0.9c-0.1-0.1-0.1-0.3-0.1-0.4c-0.1-0.4-0.3-0.9-0.4-1.3c0-0.1-0.1-0.3-0.1-0.4
	C7.6,29,3.1,28,1.2,26.7c-0.4-0.3-0.9,0-0.9,0.5v4.2c0,2.1,6.8,3.8,15.4,4c0-0.1,0-0.2,0-0.3c-0.2-0.3-0.3-0.5-0.5-0.8
	C14.9,33.7,14.5,33,14.2,32.3z"/>
<path class="st0" d="M17.3,8c9.4,0,17.1-1.8,17.1-4c0-2.2-7.6-4-17.1-4C7.9,0,0.2,1.8,0.2,4C0.2,6.2,7.9,8,17.3,8z"/>
</svg>
