<?xml version="1.0" encoding="utf-8"?>
<!-- Generator: Adobe Illustrator 23.0.6, SVG Export Plug-In . SVG Version: 6.00 Build 0)  -->
<svg version="1.1" id="Layer_1" xmlns="http://www.w3.org/2000/svg" xmlns:xlink="http://www.w3.org/1999/xlink" x="0px" y="0px"
	 viewBox="0 0 228 177" style="enable-background:new 0 0 228 177;" xml:space="preserve">
<style type="text/css">
	.st0{fill:#2d5886;}
</style>
<g>
	<path class="st0" d="M226.5,122.4H1.5c-0.8,0-1.5,0.7-1.5,1.5v40.8c0,0.8,0.7,1.5,1.5,1.5h7.9c0.8,0,1.5,0.7,1.5,1.5v7.8
		c0,0.8,0.7,1.5,1.5,1.5h203.2c0.8,0,1.5-0.7,1.5-1.5v-7.8c0-0.8,0.7-1.5,1.5-1.5h7.9c0.8,0,1.5-0.7,1.5-1.5v-40.8
		C228,123,227.3,122.4,226.5,122.4z M24.7,153.6c0,2-1.7,3.7-3.7,3.7s-3.7-1.7-3.7-3.7v-19.7c0-2,1.7-3.7,3.7-3.7s3.7,1.7,3.7,3.7
		V153.6z M39.1,153.6c0,2-1.7,3.7-3.7,3.7s-3.7-1.7-3.7-3.7v-19.7c0-2,1.7-3.7,3.7-3.7s3.7,1.7,3.7,3.7V153.6z M53.5,153.6
		c0,2-1.7,3.7-3.7,3.7s-3.7-1.7-3.7-3.7v-19.7c0-2,1.7-3.7,3.7-3.7s3.7,1.7,3.7,3.7V153.6z M67.8,153.6c0,2-1.7,3.7-3.7,3.7
		s-3.7-1.7-3.7-3.7v-19.7c0-2,1.7-3.7,3.7-3.7s3.7,1.7,3.7,3.7V153.6z M180.5,147.6c-2.2,0-3.9-1.8-3.9-3.9c0-2.2,1.8-3.9,3.9-3.9
		c2.2,0,3.9,1.8,3.9,3.9C184.4,145.9,182.6,147.6,180.5,147.6z M193.6,147.6c-2.2,0-3.9-1.8-3.9-3.9c0-2.2,1.8-3.9,3.9-3.9
		c2.2,0,3.9,1.8,3.9,3.9C197.5,145.9,195.8,147.6,193.6,147.6z M206.8,147.6c-2.2,0-3.9-1.8-3.9-3.9c0-2.2,1.8-3.9,3.9-3.9
		c2.2,0,3.9,1.8,3.9,3.9C210.7,145.9,208.9,147.6,206.8,147.6z"/>
	<path class="st0" d="M226.5,61.2H1.5c-0.8,0-1.5,0.7-1.5,1.5v40.8c0,0.8,0.7,1.5,1.5,1.5h7.9c0.8,0,1.5,0.7,1.5,1.5v7.8
		c0,0.8,0.7,1.5,1.5,1.5h203.2c0.8,0,1.5-0.7,1.5-1.5v-7.8c0-0.8,0.7-1.5,1.5-1.5h7.9c0.8,0,1.5-0.7,1.5-1.5V62.7
		C228,61.9,227.3,61.2,226.5,61.2z M24.7,92.3c0,2-1.7,3.7-3.7,3.7s-3.7-1.7-3.7-3.7V72.7c0-2,1.7-3.7,3.7-3.7s3.7,1.7,3.7,3.7V92.3
		z M39.1,92.3c0,2-1.7,3.7-3.7,3.7s-3.7-1.7-3.7-3.7V72.7c0-2,1.7-3.7,3.7-3.7s3.7,1.7,3.7,3.7V92.3z M53.5,92.3
		c0,2-1.7,3.7-3.7,3.7s-3.7-1.7-3.7-3.7V72.7c0-2,1.7-3.7,3.7-3.7s3.7,1.7,3.7,3.7V92.3z M67.8,92.3c0,2-1.7,3.7-3.7,3.7
		s-3.7-1.7-3.7-3.7V72.7c0-2,1.7-3.7,3.7-3.7s3.7,1.7,3.7,3.7V92.3z M180.5,86.5c-2.2,0-3.9-1.8-3.9-3.9c0-2.2,1.8-3.9,3.9-3.9
		c2.2,0,3.9,1.8,3.9,3.9S182.6,86.5,180.5,86.5z M193.6,86.5c-2.2,0-3.9-1.8-3.9-3.9c0-2.2,1.8-3.9,3.9-3.9c2.2,0,3.9,1.8,3.9,3.9
		S195.8,86.5,193.6,86.5z M206.8,86.5c-2.2,0-3.9-1.8-3.9-3.9c0-2.2,1.8-3.9,3.9-3.9c2.2,0,3.9,1.8,3.9,3.9S208.9,86.5,206.8,86.5z"
		/>
	<path class="st0" d="M226.5,0H1.5C0.7,0,0,0.7,0,1.5v40.8c0,0.8,0.7,1.5,1.5,1.5h7.9c0.8,0,1.5,0.7,1.5,1.5v7.8
		c0,0.8,0.7,1.5,1.5,1.5h203.2c0.8,0,1.5-0.7,1.5-1.5v-7.8c0-0.8,0.7-1.5,1.5-1.5h7.9c0.8,0,1.5-0.7,1.5-1.5V1.5
		C228,0.7,227.3,0,226.5,0z M24.7,31.2c0,2-1.7,3.7-3.7,3.7s-3.7-1.7-3.7-3.7V11.5c0-2,1.7-3.7,3.7-3.7s3.7,1.7,3.7,3.7V31.2z
		 M39.1,31.2c0,2-1.7,3.7-3.7,3.7s-3.7-1.7-3.7-3.7V11.5c0-2,1.7-3.7,3.7-3.7s3.7,1.7,3.7,3.7V31.2z M53.5,31.2c0,2-1.7,3.7-3.7,3.7
		s-3.7-1.7-3.7-3.7V11.5c0-2,1.7-3.7,3.7-3.7s3.7,1.7,3.7,3.7V31.2z M67.8,31.2c0,2-1.7,3.7-3.7,3.7s-3.7-1.7-3.7-3.7V11.5
		c0-2,1.7-3.7,3.7-3.7s3.7,1.7,3.7,3.7V31.2z M180.5,25.2c-2.2,0-3.9-1.8-3.9-3.9c0-2.2,1.8-3.9,3.9-3.9c2.2,0,3.9,1.8,3.9,3.9
		C184.4,23.5,182.6,25.2,180.5,25.2z M193.6,25.2c-2.2,0-3.9-1.8-3.9-3.9c0-2.2,1.8-3.9,3.9-3.9c2.2,0,3.9,1.8,3.9,3.9
		C197.5,23.5,195.8,25.2,193.6,25.2z M206.8,25.2c-2.2,0-3.9-1.8-3.9-3.9c0-2.2,1.8-3.9,3.9-3.9c2.2,0,3.9,1.8,3.9,3.9
		C210.7,23.5,208.9,25.2,206.8,25.2z"/>
</g>
</svg>
