<?xml version="1.0" encoding="utf-8"?>
<!-- Generator: Adobe Illustrator 19.0.0, SVG Export Plug-In . SVG Version: 6.00 Build 0)  -->
<svg version="1.1" id="Layer_1" xmlns="http://www.w3.org/2000/svg" xmlns:xlink="http://www.w3.org/1999/xlink" x="0px" y="0px"
	 viewBox="-277.5 396.4 50 50" style="enable-background:new -277.5 396.4 50 50;" xml:space="preserve">
<style type="text/css">
	.st0{fill:#464950;}
	.st1{fill:#1EB6DB;}
	.st2{fill:#2E435E;}
	.st3{fill:#FFFFFF;}
</style>
<circle class="st0" cx="-252.5" cy="421.4" r="25"/>
<g>
	<path class="st1" d="M-236.3,409.6l-1.6,2.8c1.6,2.6,2.5,5.7,2.5,9c0,9.5-7.6,17.1-17.1,17.1c-5.3,0-10-2.4-13.1-6.1l-1.5,2.6
		c3.6,3.9,8.8,6.3,14.6,6.3c11.1,0,20-8.9,20-20C-232.5,416.9-233.9,412.9-236.3,409.6z"/>
	<path class="st1" d="M-269.6,421.3c0-9.5,7.6-17.1,17.1-17.1c5.3,0,9.9,2.4,13.1,6.1l1.5-2.6c-3.6-3.9-8.8-6.3-14.6-6.3
		c-11.1,0-20,8.9-20,20c0,4.4,1.4,8.4,3.8,11.7l1.6-2.8C-268.7,427.6-269.6,424.6-269.6,421.3z"/>
	<path class="st2" d="M-249.6,431.2c-0.2,0-0.4-0.1-0.6-0.2c-0.6-0.3-0.7-1-0.5-1.6l11.2-19.1c-3.1-3.7-7.8-6.1-13.1-6.1
		c-9.5,0-17.1,7.6-17.1,17.1c0,3.3,0.9,6.3,2.5,8.9l10.7-18.3c0.3-0.6,1-0.7,1.6-0.5c0.6,0.3,0.7,1,0.5,1.6l-11.2,19.3
		c3.1,3.7,7.8,6.1,13.1,6.1c9.5,0,17.1-7.6,17.1-17.1c0-3.3-0.9-6.4-2.5-9l-10.7,18.3C-248.8,431-249.2,431.2-249.6,431.2z
		 M-256.6,430.5c-0.2,0.5-0.6,0.7-1,0.7c-0.2,0-0.4-0.1-0.6-0.2c-0.6-0.3-0.7-1-0.5-1.6l10.2-17.5c0.3-0.6,1-0.7,1.6-0.5
		c0.6,0.3,0.7,1,0.5,1.6L-256.6,430.5z"/>
	<path class="st3" d="M-237.9,412.3l1.6-2.8c-0.5-0.7-1-1.3-1.6-1.9l-1.5,2.6C-238.9,410.9-238.4,411.6-237.9,412.3z"/>
	<path class="st3" d="M-250.6,429.4c-0.3,0.6-0.1,1.3,0.5,1.6c0.2,0.1,0.4,0.2,0.6,0.2c0.5,0,0.8-0.2,1-0.6l10.7-18.3
		c-0.4-0.7-0.9-1.4-1.5-2.1L-250.6,429.4z"/>
	<path class="st3" d="M-246.8,411.4c-0.6-0.3-1.3-0.1-1.6,0.5l-10.2,17.5c-0.3,0.6-0.1,1.3,0.5,1.6c0.2,0.1,0.4,0.2,0.6,0.2
		c0.5,0,0.8-0.2,1-0.7l10.2-17.5C-246.1,412.5-246.3,411.7-246.8,411.4z"/>
	<path class="st3" d="M-267.1,430.2l-1.6,2.8c0.5,0.7,1,1.3,1.6,2l1.5-2.6C-266.1,431.7-266.6,431-267.1,430.2z"/>
	<path class="st3" d="M-254.8,411.4c-0.6-0.3-1.3-0.1-1.6,0.5l-10.7,18.3c0.5,0.7,1,1.5,1.5,2.1l11.2-19.3
		C-254.1,412.5-254.3,411.7-254.8,411.4z"/>
</g>
</svg>
