<?xml version="1.0" encoding="utf-8"?>
<!-- Generator: Adobe Illustrator 23.0.6, SVG Export Plug-In . SVG Version: 6.00 Build 0)  -->
<svg version="1.1" id="Layer_1" xmlns="http://www.w3.org/2000/svg" xmlns:xlink="http://www.w3.org/1999/xlink" x="0px" y="0px"
	 viewBox="0 0 43 43" style="enable-background:new 0 0 43 43;" xml:space="preserve">
<style type="text/css">
	.st0{fill:#1EB6DB;}
	.st1{fill:#2E435E;}
	.st2{fill:#FFFFFF;}
</style>
<g>
	<path class="st0" d="M43,21.5C43,33.4,33.4,43,21.5,43S0,33.4,0,21.5C0,9.6,9.6,0,21.5,0C33.4,0,43,9.6,43,21.5z"/>
	<path class="st1" d="M39.9,21.5c0,10.2-8.2,18.4-18.4,18.4S3.1,31.7,3.1,21.5c0-10.2,8.2-18.4,18.4-18.4S39.9,11.3,39.9,21.5z"/>
	<path class="st2" d="M24.6,32.1c-0.2,0-0.4-0.1-0.6-0.2c-0.6-0.3-0.8-1.1-0.5-1.7L38.8,4.1c0.3-0.6,1.1-0.8,1.7-0.5
		c0.6,0.3,0.8,1.1,0.5,1.7L25.7,31.5C25.5,31.9,25.1,32.1,24.6,32.1z"/>
	<path class="st2" d="M16,32.1c-0.2,0-0.4-0.1-0.6-0.2c-0.6-0.3-0.8-1.1-0.5-1.7l11-18.8c0.3-0.6,1.1-0.8,1.7-0.5
		c0.6,0.3,0.8,1.1,0.5,1.7l-11,18.8C16.9,31.9,16.5,32.1,16,32.1z"/>
	<path class="st2" d="M3.3,39.2c-0.2,0-0.4-0.1-0.6-0.2c-0.6-0.3-0.8-1.1-0.5-1.7l15.1-25.9c0.3-0.6,1.1-0.8,1.7-0.5
		c0.6,0.3,0.8,1.1,0.5,1.7L4.4,38.6C4.1,39,3.7,39.2,3.3,39.2z"/>
</g>
</svg>
