<?xml version="1.0" encoding="utf-8"?>
<!-- Generator: Adobe Illustrator 23.0.6, SVG Export Plug-In . SVG Version: 6.00 Build 0)  -->
<svg version="1.1" id="Layer_1" xmlns="http://www.w3.org/2000/svg" xmlns:xlink="http://www.w3.org/1999/xlink" x="0px" y="0px"
	 viewBox="0 0 446 308" style="enable-background:new 0 0 446 308;" xml:space="preserve">
<style type="text/css">
	.st0{fill:#2d5886;}
</style>
<g id="Guides_For_Artboard">
</g>
<g>
	<path class="st0" d="M440.1,109.6l-56.6-21.2l56.8-21.2c3.5-1.3,5.8-4.6,5.8-8.3s-2.3-7-5.8-8.3L305,0.6c-2-0.7-4.2-0.7-6.2,0
		L223,28.7l-75.4-28c-2-0.7-4.2-0.7-6.2,0L6.1,50.6c-3.5,1.3-5.8,4.6-5.8,8.3s2.3,7,5.8,8.3l56.3,21l-56.6,21
		c-3.5,1.3-5.8,4.6-5.8,8.3c0,3.7,2.3,7.1,5.8,8.3L79.1,153v96.1c0,3.7,2.3,7.1,5.8,8.3l135,50c1,0.4,2,0.6,3.1,0.6s2.1-0.2,3.1-0.6
		l0,0l135-50c3.5-1.3,5.8-4.6,5.8-8.3v-95.9l73.1-27c3.5-1.3,5.8-4.6,5.8-8.3S443.5,110.9,440.1,109.6z M214.1,286.3L96.8,242.9
		v-83.4l44.3,16.4c1,0.4,2,0.5,3.1,0.5c1,0,2.1-0.2,3.1-0.5l66.8-24.7L214.1,286.3L214.1,286.3z M223,128.9L113.5,88.3L223,47.6
		l109.5,40.7L223,128.9z M301.6,158.4l-30.1-11.3l-23.1-8.6L358,97.8l53.4,20L301.6,158.4z"/>
</g>
</svg>
