<?xml version="1.0" encoding="utf-8"?>
<!-- Generator: Adobe Illustrator 23.0.6, SVG Export Plug-In . SVG Version: 6.00 Build 0)  -->
<svg version="1.1" id="Layer_1" xmlns="http://www.w3.org/2000/svg" xmlns:xlink="http://www.w3.org/1999/xlink" x="0px" y="0px"
	 viewBox="0 0 67 95" style="enable-background:new 0 0 67 95;" xml:space="preserve">
<style type="text/css">
	.st0{fill:#2d5886;}
</style>
<path class="st0" d="M14.1,29.8c0-10.8,8.7-19.5,19.4-19.5s19.4,8.8,19.4,19.5v7.6h10.2v-7.6C63.1,13.4,49.8,0,33.5,0
	S3.9,13.4,3.9,29.8v7.6h10.2V29.8z"/>
<path class="st0" d="M66.5,37.4h-3.4v0.2H52.9v-0.2H14.1v0.2H3.9v-0.2H0.5c-0.3,0-0.5,0.2-0.5,0.5V90c0,2.8,2.2,5,4.9,5H62
	c2.7,0,4.9-2.2,4.9-4.9V37.9C67,37.6,66.8,37.4,66.5,37.4z M30.5,77.7L14.8,62.8l6.7-6.3l9,8.5l18.1-17.1l6.7,6.3L30.5,77.7z"/>
<rect x="28.4" y="37.4" class="st0" width="10.2" height="0.2"/>
<rect x="28.4" y="37.4" class="st0" width="10.2" height="0.2"/>
</svg>
